<svg xmlns="http://www.w3.org/2000/svg" width="40.782" height="32.785" viewBox="0 0 40.782 32.785"><g transform="translate(0 -41.206)"><g transform="translate(0 41.206)"><g transform="translate(0 0)"><path d="M103.417,41.206H75.434a3.017,3.017,0,0,0-3.022,2.989v17.2a3.017,3.017,0,0,0,3.022,2.989h19.29l4.365,4.354a.939.939,0,0,0,.672.3.958.958,0,0,0,.97-.959v-3.69h2.686a3.017,3.017,0,0,0,3.022-2.989v-17.2A3.017,3.017,0,0,0,103.417,41.206ZM79.725,56a2.768,2.768,0,1,1,2.8-2.768A2.8,2.8,0,0,1,79.725,56Zm9.813,0a2.768,2.768,0,1,1,2.8-2.768A2.8,2.8,0,0,1,89.538,56Zm9.775,0a2.768,2.768,0,1,1,2.8-2.768A2.8,2.8,0,0,1,99.313,56Z" transform="translate(-65.658 -41.206)" fill="#122b52"/><path d="M5.038,203.138v-5.932H1.979A1.991,1.991,0,0,0,0,199.183V210.6a1.962,1.962,0,0,0,1.977,2.052H3.732v2.463a.654.654,0,0,0,.634.634.618.618,0,0,0,.448-.187l2.873-2.873H20.373a1.991,1.991,0,0,0,1.977-1.977v-2.836H9.776A4.745,4.745,0,0,1,5.038,203.138Z" transform="translate(0 -182.964)" fill="#122b52"/></g></g></g></svg>