<svg xmlns="http://www.w3.org/2000/svg" xmlns:xlink="http://www.w3.org/1999/xlink" width="553.64" height="347.59" viewBox="0 0 553.64 347.59">
  <defs>
    <linearGradient id="linear-gradient" x1="0.501" y1="1" x2="0.501" gradientUnits="objectBoundingBox">
      <stop offset="0" stop-color="gray" stop-opacity="0.251"/>
      <stop offset="0.54" stop-color="gray" stop-opacity="0.122"/>
      <stop offset="1" stop-color="gray" stop-opacity="0.102"/>
    </linearGradient>
    <linearGradient id="linear-gradient-2" x1="-4.618" y1="1" x2="-4.618" y2="0" xlink:href="#linear-gradient"/>
    <linearGradient id="linear-gradient-3" x1="0.5" y1="1" x2="0.5" y2="0" xlink:href="#linear-gradient"/>
  </defs>
  <g id="Group_18" data-name="Group 18" transform="translate(-315 -372)">
    <path id="Path_190" data-name="Path 190" d="M581.63,285.934c0-34.4-14.547-64.791-36.78-83.065q.46-5.212.484-10.574c0-55.862-38.348-101.145-85.659-101.145a75.321,75.321,0,0,0-41.576,12.7C384.615,78.2,340.9,62.68,293.077,62.68c-77.814,0-144.748,41.1-174.443,100.041-1.65-.111-3.31-.174-4.985-.174-47.3,0-85.659,45.283-85.659,101.145a114.094,114.094,0,0,0,14.093,55.6h0a90.982,90.982,0,0,0,90.982,90.982H497.539a71.45,71.45,0,0,0,71.45-71.45h0A114.612,114.612,0,0,0,581.63,285.934Z" transform="translate(287.01 309.32)" fill="#6c63ff" opacity="0.1"/>
    <path id="Path_191" data-name="Path 191" d="M664.975,724.647s-4.985-3.289-9.925-.949c0,0,1.521,2.932,7.775,2.653Z" transform="translate(-37.72 -83.096)" fill="#6c63ff"/>
    <path id="Path_192" data-name="Path 192" d="M676.158,727.7s1.517,5.78-2.288,9.706c0,0-2.287-2.381,0-8.213Z" transform="translate(-48.303 -85.974)" fill="#6c63ff"/>
    <path id="Path_193" data-name="Path 193" d="M679.558,708.705s-.365-4.912-11.458-3.281c0,0-.053,3.168,3.841,4.672S677.615,710.328,679.558,708.705Z" transform="translate(-45.477 -72.536)" fill="#6c63ff"/>
    <path id="Path_194" data-name="Path 194" d="M693.235,714s4.689,1.509.507,11.908c0,0-3.095-.69-3.65-4.827S691.207,715.489,693.235,714Z" transform="translate(-58.485 -77.831)" fill="#6c63ff"/>
    <path id="Path_195" data-name="Path 195" d="M697.814,686.054s.633-8.083-10.7-7.252c0,0-.811,7.3,8.7,9.195Z" transform="translate(-56.77 -56.873)" fill="#6c63ff"/>
    <path id="Path_196" data-name="Path 196" d="M713.116,664.1s-1.553-9.158-12.886-6.429c0,0-.041,7.917,11.036,8.611Z" transform="translate(-64.576 -44.049)" fill="#6c63ff"/>
    <path id="Path_197" data-name="Path 197" d="M725.217,641.108s-2.6-8.923-13.827-6.25c0,0,2.673,8.023,13.084,7.9Z" transform="translate(-71.209 -30.491)" fill="#6c63ff"/>
    <path id="Path_198" data-name="Path 198" d="M738.694,618.03s-2.547-9.264-13.385-6.489c0,0,3.614,8.8,12.667,8.055Z" transform="translate(-79.483 -16.619)" fill="#6c63ff"/>
    <path id="Path_199" data-name="Path 199" d="M748.892,593.261s-1.955-11.328-12.062-8.822c0,0,2.936,10.3,11.32,10.468Z" transform="translate(-86.331 -0.603)" fill="#6c63ff"/>
    <path id="Path_200" data-name="Path 200" d="M755.893,567.873s-2.348-11.413-12.573-8.112c0,0,4.011,10.789,11.851,9.673Z" transform="translate(-90.189 14.206)" fill="#6c63ff"/>
    <path id="Path_201" data-name="Path 201" d="M762.072,540.1s-3.727-11.413-11.632-11.105c0,0,3.809,12.054,10.951,13.385Z" transform="translate(-94.421 32.144)" fill="#6c63ff"/>
    <path id="Path_202" data-name="Path 202" d="M766.789,514.033s-4.056-13.741-10.489-12.679c0,0,2.807,10.5,10.261,14.82Z" transform="translate(-97.904 48.603)" fill="#6c63ff"/>
    <path id="Path_203" data-name="Path 203" d="M769.03,486.974s-3.8-11.45-10.14-11.9c0,0,2.588,11.263,10.014,14.881Z" transform="translate(-99.444 64.192)" fill="#6c63ff"/>
    <path id="Path_204" data-name="Path 204" d="M772.713,460.912s-4.741-11.462-8.923-11.722c0,0,2.06,11.288,8.517,13.6Z" transform="translate(-102.356 79.575)" fill="#6c63ff"/>
    <path id="Path_205" data-name="Path 205" d="M776.67,433.812s-2.916-12.448-7.11-13.482c0,0,.576,10.184,6.688,14.415Z" transform="translate(-105.786 96.73)" fill="#6c63ff"/>
    <path id="Path_206" data-name="Path 206" d="M781.519,404.734s-3.074-9.933-6.469-11.434c0,0,.669,11.7,5.678,13.859Z" transform="translate(-109.049 112.796)" fill="#6c63ff"/>
    <path id="Path_207" data-name="Path 207" d="M790.473,374.767l.617-17.5s-6.335,13.206-1.083,20.584Z" transform="translate(-116.701 134.213)" fill="#6c63ff"/>
    <path id="Path_208" data-name="Path 208" d="M802.672,337.776S807.243,325,808.35,324.29c0,0-8.959,8.286-8.087,18.949Z" transform="translate(-124 153.817)" fill="#6c63ff"/>
    <path id="Path_209" data-name="Path 209" d="M711.587,696.581s8.039-1.063,7.8,10.294c0,0-7.264,1.184-9.637-8.209Z" transform="translate(-70.234 -67.461)" fill="#6c63ff"/>
    <path id="Path_210" data-name="Path 210" d="M730.219,673.52s9.288-.032,8.517,11.6c0,0-7.8,1.4-10.367-9.4Z" transform="translate(-81.302 -53.769)" fill="#6c63ff"/>
    <path id="Path_211" data-name="Path 211" d="M744.616,651.765s8.432-3.955,13.827,6.25c0,0-7.787,3.3-14.573-4.6Z" transform="translate(-90.516 -40.389)" fill="#6c63ff"/>
    <path id="Path_212" data-name="Path 212" d="M757.724,627.217s8.635-4.21,13.7,5.763c0,0-9,3.095-14.419-4.19Z" transform="translate(-98.326 -25.722)" fill="#6c63ff"/>
    <path id="Path_213" data-name="Path 213" d="M765.741,602.188s8.311-7.937,14.942.089c0,0-8.489,6.534-15.323,1.679Z" transform="translate(-103.289 -9.288)" fill="#6c63ff"/>
    <path id="Path_214" data-name="Path 214" d="M772.72,574.876s8.359-8.112,14.938.377c0,0-9.385,6.66-15.238,1.33Z" transform="translate(-107.486 6.944)" fill="#6c63ff"/>
    <path id="Path_215" data-name="Path 215" d="M777,543.558s6.441-10.14,14.025-7.872c0,0-6.684,10.732-13.952,10.253Z" transform="translate(-110.208 28.358)" fill="#6c63ff"/>
    <path id="Path_216" data-name="Path 216" d="M781.446,516.713s6.49-12.772,12.63-10.545c0,0-4.681,9.811-12.8,12.7Z" transform="translate(-112.752 45.862)" fill="#6c63ff"/>
    <path id="Path_217" data-name="Path 217" d="M781.845,489.733s6.676-10.055,12.922-8.826c0,0-5.451,10.193-13.567,11.734Z" transform="translate(-112.705 60.784)" fill="#6c63ff"/>
    <path id="Path_218" data-name="Path 218" d="M784.05,460.867s5.171-11.275,9.373-11.377c0,0-2.482,11.2-9.024,13.271Z" transform="translate(-114.399 79.397)" fill="#6c63ff"/>
    <path id="Path_219" data-name="Path 219" d="M786.58,436.226s5.747-11.421,10.063-11.446c0,0-2.941,9.767-9.872,12.452Z" transform="translate(-115.903 94.084)" fill="#6c63ff"/>
    <path id="Path_220" data-name="Path 220" d="M788.71,407.765s4.3-9.454,7.856-10.545c0,0-2.15,11.519-7.386,13.032Z" transform="translate(-117.169 110.466)" fill="#6c63ff"/>
    <path id="Path_221" data-name="Path 221" d="M793.413,378.148l9.608-14.638s-2.462,14.439-11.012,17.44Z" transform="translate(-119.13 130.504)" fill="#6c63ff"/>
    <path id="Path_222" data-name="Path 222" d="M804.912,347.321s11.166-7.706,11.572-8.951c0,0-5.678,10.8-16.224,12.7Z" transform="translate(-124.034 145.447)" fill="#6c63ff"/>
    <path id="Path_223" data-name="Path 223" d="M812.928,333.854s12.821-12.326,16.094-12.314c0,0-10.574.487-16.4,11.657Z" transform="translate(-131.381 155.451)" fill="#6c63ff"/>
    <path id="Path_224" data-name="Path 224" d="M789,381.17l.47.057c2.409-18.856,5.922-30.014,9.888-31.381l-.154-.446C795,350.86,791.474,361.848,789,381.17Z" transform="translate(-117.341 138.891)" fill="#444053"/>
    <path id="Path_225" data-name="Path 225" d="M780.28,470.769l.706.061c.15-1.764.264-3.565.341-5.358.673-15.611,1.716-29.941,3.087-40.689l-.406-.5c-1.375,10.764-2.709,25.552-3.383,41.159C780.544,467.224,780.43,469.017,780.28,470.769Z" transform="translate(-112.158 94.382)" fill="#444053"/>
    <path id="Path_226" data-name="Path 226" d="M646.5,622.274c.122-.053,12.545-5.6,25.439-18.832a102.3,102.3,0,0,0,18.6-26.363c5.962-12.135,9.6-27.057,10.813-41.549l-.734.349c-2.738,32.524-17.546,54.755-29.32,66.858-12.768,13.117-25.053,18.6-25.175,18.657Z" transform="translate(-32.412 28.254)" fill="#444053"/>
    <path id="Path_227" data-name="Path 227" d="M541.473,160.681V200.5c0,2.1-2.028,3.813-4.53,3.813H441.06c-2.5,0-4.53-1.712-4.53-3.813V160.681a4.564,4.564,0,0,1,4.53-4.251h95.882A4.561,4.561,0,0,1,541.473,160.681Z" transform="translate(92.17 253.594)" fill="#fff"/>
    <path id="Path_228" data-name="Path 228" d="M541.473,160.962V172.08H436.53V160.966a4.526,4.526,0,0,1,4.53-4.526h95.882a4.522,4.522,0,0,1,4.53,4.522Z" transform="translate(92.17 253.588)" fill="#6c63ff" opacity="0.2"/>
    <circle id="Ellipse_12" data-name="Ellipse 12" cx="3.03" cy="3.03" r="3.03" transform="translate(531.426 414.81)" fill="#fff"/>
    <circle id="Ellipse_13" data-name="Ellipse 13" cx="3.03" cy="3.03" r="3.03" transform="translate(540.239 414.81)" fill="#fff"/>
    <circle id="Ellipse_14" data-name="Ellipse 14" cx="3.03" cy="3.03" r="3.03" transform="translate(549.053 414.81)" fill="#fff"/>
    <circle id="Ellipse_15" data-name="Ellipse 15" cx="11.843" cy="11.843" r="11.843" transform="translate(537.647 429.683)" fill="#6c63ff" opacity="0.2"/>
    <rect id="Rectangle_34" data-name="Rectangle 34" width="49.944" height="1.764" transform="translate(574.755 433.557)" fill="#6c63ff"/>
    <rect id="Rectangle_35" data-name="Rectangle 35" width="49.944" height="1.764" transform="translate(574.755 437.856)" fill="#6c63ff" opacity="0.2"/>
    <rect id="Rectangle_36" data-name="Rectangle 36" width="49.944" height="1.764" transform="translate(574.755 442.151)" fill="#6c63ff" opacity="0.2"/>
    <rect id="Rectangle_37" data-name="Rectangle 37" width="49.944" height="1.764" transform="translate(574.755 446.446)" fill="#6c63ff" opacity="0.2"/>
    <path id="Path_229" data-name="Path 229" d="M837.781,102.911v70.67c0,2.1-2.028,3.813-4.53,3.813H737.36c-2.5,0-4.531-1.712-4.531-3.813v-70.67a4.564,4.564,0,0,1,4.531-4.251h95.89A4.579,4.579,0,0,1,837.781,102.911Z" transform="translate(-83.953 287.933)" fill="#fff"/>
    <path id="Path_230" data-name="Path 230" d="M837.787,103.19V114.3H732.84V103.19a4.53,4.53,0,0,1,4.526-4.53h95.89A4.53,4.53,0,0,1,837.787,103.19Z" transform="translate(-83.959 287.933)" fill="#6c63ff" opacity="0.2"/>
    <circle id="Ellipse_16" data-name="Ellipse 16" cx="3.03" cy="3.03" r="3.03" transform="translate(651.606 391.379)" fill="#fff"/>
    <circle id="Ellipse_17" data-name="Ellipse 17" cx="3.03" cy="3.03" r="3.03" transform="translate(660.42 391.379)" fill="#fff"/>
    <circle id="Ellipse_18" data-name="Ellipse 18" cx="3.03" cy="3.03" r="3.03" transform="translate(669.233 391.379)" fill="#fff"/>
    <circle id="Ellipse_19" data-name="Ellipse 19" cx="11.843" cy="11.843" r="11.843" transform="translate(657.828 406.252)" fill="#6c63ff" opacity="0.2"/>
    <rect id="Rectangle_38" data-name="Rectangle 38" width="49.944" height="1.764" transform="translate(694.936 410.13)" fill="#6c63ff"/>
    <rect id="Rectangle_39" data-name="Rectangle 39" width="49.944" height="1.764" transform="translate(694.936 414.425)" fill="#6c63ff" opacity="0.2"/>
    <rect id="Rectangle_40" data-name="Rectangle 40" width="49.944" height="1.764" transform="translate(694.936 418.72)" fill="#6c63ff" opacity="0.2"/>
    <rect id="Rectangle_41" data-name="Rectangle 41" width="49.944" height="1.764" transform="translate(694.936 423.019)" fill="#6c63ff" opacity="0.2"/>
    <circle id="Ellipse_20" data-name="Ellipse 20" cx="11.843" cy="11.843" r="11.843" transform="translate(657.828 433.962)" fill="#6c63ff" opacity="0.2"/>
    <rect id="Rectangle_42" data-name="Rectangle 42" width="49.944" height="1.764" transform="translate(694.936 437.836)" fill="#6c63ff"/>
    <rect id="Rectangle_43" data-name="Rectangle 43" width="49.944" height="1.764" transform="translate(694.936 442.135)" fill="#6c63ff" opacity="0.2"/>
    <rect id="Rectangle_44" data-name="Rectangle 44" width="49.944" height="1.764" transform="translate(694.936 446.43)" fill="#6c63ff" opacity="0.2"/>
    <rect id="Rectangle_45" data-name="Rectangle 45" width="49.944" height="1.764" transform="translate(694.936 450.725)" fill="#6c63ff" opacity="0.2"/>
    <path id="Path_231" data-name="Path 231" d="M324.211,351.255V504.483c0,4.555-4.4,8.262-9.823,8.262H106.493c-5.427,0-9.823-3.707-9.823-8.262V351.255c0-4.563,4.4-9.215,9.823-9.215H314.387C319.814,342.024,324.211,346.692,324.211,351.255Z" transform="translate(294.186 143.266)" fill="#fff"/>
    <path id="Path_232" data-name="Path 232" d="M324.216,351.84v24.084H96.68V351.84A9.819,9.819,0,0,1,106.5,342H314.393a9.819,9.819,0,0,1,9.823,9.84Z" transform="translate(294.18 143.29)" fill="#6c63ff" opacity="0.2"/>
    <circle id="Ellipse_21" data-name="Ellipse 21" cx="6.567" cy="6.567" r="6.567" transform="translate(396.77 495.693)" fill="#fff"/>
    <circle id="Ellipse_22" data-name="Ellipse 22" cx="6.567" cy="6.567" r="6.567" transform="translate(415.881 495.693)" fill="#fff"/>
    <circle id="Ellipse_23" data-name="Ellipse 23" cx="6.567" cy="6.567" r="6.567" transform="translate(434.988 495.693)" fill="#fff"/>
    <path id="Path_233" data-name="Path 233" d="M320.257,484.224a3.378,3.378,0,0,1,.46-1.7,4.9,4.9,0,0,1,.293-.433,22.588,22.588,0,0,0,3.851-12.6c.042-12.861-10.811-23.3-24.228-23.3-11.713,0-21.468,7.965-23.756,18.537a22.439,22.439,0,0,0-.517,4.771A23.663,23.663,0,0,0,300.214,493.1a28.794,28.794,0,0,0,6.582-1.073c1.575-.431,3.137-1.006,3.543-1.159a3.713,3.713,0,0,1,1.3-.236,3.613,3.613,0,0,1,1.408.278l7.91,2.8a1.9,1.9,0,0,0,.544.138,1.108,1.108,0,0,0,1.115-1.115,1.8,1.8,0,0,0-.069-.376Z" transform="translate(209.429 115.352)" fill="#6c63ff"/>
    <path id="Path_234" data-name="Path 234" d="M268.541,565.764c-.5.138-1.144.293-1.841.445a25.686,25.686,0,0,1-4.744.628,23.655,23.655,0,0,1-23.844-23.588,26.555,26.555,0,0,1,.209-2.985c.084-.6.182-1.2.32-1.784.14-.627.307-1.255.489-1.87l-1.117.989a20.765,20.765,0,0,0-7.205,15.616,20.531,20.531,0,0,0,3.459,11.439c.32.489.5.866.445,1.117s-1.659,8.649-1.659,8.649a1.117,1.117,0,0,0,.376,1.073,1.136,1.136,0,0,0,.711.251.982.982,0,0,0,.4-.084l7.827-3.083a2.179,2.179,0,0,1,1.673.029,23.5,23.5,0,0,0,8.467,1.673,21.911,21.911,0,0,0,16.753-7.686s.448-.613.962-1.339c-.515.182-1.1.362-1.688.517Z" transform="translate(245.452 43.852)" fill="#6c63ff"/>
    <path id="Path_235" data-name="Path 235" d="M128.451,654.917s-6.347,1.529-8.862,4.409a8.619,8.619,0,0,1-3.383,2.15v-4.348c1.452-2.434,2.92-5.151,2.92-5.151.065-.134.592-2,.592-2,1.192-.937-.065-4.21-.065-4.21s.726-2.073.333-2.474-.069-1.468.264-1.935a2.433,2.433,0,0,0,.264-1.472c0-.406-.527-1-1.387-1.334s.065-.868.592-1,.661-1.4.069-2.073.065-1.067.406-1.8-1.055-.6-1.055-.6v-6.745h0s-.406-2.206-.811-6.084-1.918-4.275-1.918-4.275a17.189,17.189,0,0,1-2.381-.937,16.479,16.479,0,0,0-2.515-.933,12.839,12.839,0,0,1-3.245-.45,10,10,0,0,0-2.215-.479l-.227-.118a8.679,8.679,0,0,1-4.015-4.255c-.041-.089-.077-.182-.114-.272a9.712,9.712,0,0,0,1.059-1.4h0v.787h0c1.059-1.866,4.117-2.292,4.409-4.417a2.356,2.356,0,0,0,.02-.292h0v-.215c-.041-.6-.243-1.188-.284-1.789a3.65,3.65,0,0,1,0-.515h0c.134-1.651,1.383-3.086,1.951-4.693a5.865,5.865,0,0,0,.3-1.338h0c0-.138.024-.276.028-.406a.845.845,0,0,1,0-.1v-.288a6.262,6.262,0,0,0-2.064-4.518c-1.055-.917-2.434-1.493-3.18-2.689-.341-.556-.507-1.217-.88-1.752a4.4,4.4,0,0,0-3.2-1.57,18.392,18.392,0,0,1-3.63-.483c-.811-.268-1.574-.746-2.405-.99a4.6,4.6,0,0,0-4.944,1.785,8.666,8.666,0,0,1-1.318,1.906c-1.217,1.022-3.269.58-4.332,1.76a3.136,3.136,0,0,0-.58,2.434v.446c.036.324.085.645.126.957v.142c0,.045.024.195.032.292a1.81,1.81,0,0,1,0,.211v.471a14.2,14.2,0,0,1-1.517,7.122c-1,1.967-2.486,3.776-2.746,5.97a6.043,6.043,0,0,0-.028,1.083c0,.041,0,.085,0,.126v.195l.024.223v.13c0,.045.028.195.045.3v.061c.264,1.5.86,2.973,1.176,4.461A12.417,12.417,0,0,1,80,613.608h0a4.062,4.062,0,0,0,.024.543c.024.183,0,.491,0,.734a12.249,12.249,0,0,1-1.545.475c-.925.134-3.65,2.539-3.439,3.139s-1.217,4.818-1.253,4.94h0l-2.231,15.368s-1.18,1.136-.811,1.87a3.237,3.237,0,0,1-.069,2s-1.991.868-1.549,1.4a2.323,2.323,0,0,1-.065,2.206c-.3.669-.811,1.87,0,2.068s.138,2.807.138,2.807,2.79-.32,2.588,1.338c-.065.527,1.951,1.979,2.795,2.559v7.982a24.207,24.207,0,0,1-3.31-1.123c-1.72-.811-11.377-2.336-13.494,2.271s2.912,10.756,4.169,11.426a8.638,8.638,0,0,1,1.452,1.4c.268.466,1.789.6,1.789.6a11.467,11.467,0,0,1,1.983,1.136,22.554,22.554,0,0,0,5.581,1.663h0s-2.312,5.329,1.464,4.891,5.617-2.3,8.282-2.3c1.063,0,3.038-.146,5.029-.324a12.86,12.86,0,0,1,1.48.349,19.15,19.15,0,0,0,3.439.734s2.977,1.622,4.563,1.217a1.042,1.042,0,0,0,.361-.191h.036a2.137,2.137,0,0,0,.957-.811,29.5,29.5,0,0,1,5.1.811c1.647.637,13.413-.243,13.413-.243s7.6.15,9.783.811,1.4-6.725-2.616-7.556a16.187,16.187,0,0,0-3.269-.288,7.541,7.541,0,0,0,.758-.925c1.448-.134,2.4-.215,2.4-.215s3.837-1.87,6.019-3.005a13.79,13.79,0,0,0,3.707-2.941s1.918-1.217,2.709-1.667,1.192-2.028,1.192-2.028C143.734,653.112,128.451,654.917,128.451,654.917Zm-17.225-17.1v-.673C111.437,637.3,111.408,637.537,111.226,637.817Zm.061,4.725c.162.211.316.406.43.548.406.548-.349.811-.292,1.736,0,.207.032.491.049.811h0c-.081-1.318-.146-2.413-.187-3.095Z" transform="translate(317.61 0.814)" fill="url(#linear-gradient)"/>
    <path id="Path_236" data-name="Path 236" d="M77.078,779.973a38.96,38.96,0,0,1-5.427-1.655c-1.72-.795-11.377-2.316-13.494,2.251s2.912,10.651,4.169,11.312,13.494-8.4,13.494-8.4l9.657,4.056,1.854-6.319Z" transform="translate(317.384 -115.53)" fill="#65617d"/>
    <rect id="Rectangle_46" data-name="Rectangle 46" width="42.027" height="14.622" rx="7.311" transform="translate(398.546 665.696)" fill="#65617d"/>
    <path id="Path_237" data-name="Path 237" d="M157.654,794.1a7.3,7.3,0,0,1-7.3,7.3H122.936a7.311,7.311,0,1,1,0-14.622h27.406a7.3,7.3,0,0,1,7.3,7.3Z" transform="translate(282.919 -121.092)" opacity="0.1"/>
    <path id="Path_238" data-name="Path 238" d="M121.972,805.88a34.93,34.93,0,0,1-7.654,1.034c-3.439-.049-19.525,6.635-19.525,6.635s-2.312,5.273,1.464,4.843,5.617-2.275,8.282-2.275,11.04-.921,11.04-.921l8.083-5.958Z" transform="translate(295.718 -132.445)" fill="#fbbebe"/>
    <path id="Path_239" data-name="Path 239" d="M140.246,655.412l-7.556,1.493-.491.1s-5.978-1.59-6.177-1.724-5.621-7.443-5.621-7.443a10.884,10.884,0,0,0,4.9-1.217,2.6,2.6,0,0,0,.227-.138,4.766,4.766,0,0,0,2.028-2.494c.036-.109.073-.223.105-.341a6.749,6.749,0,0,0-.065-3.245c-.73-3.083.961-3.93,3.22-3.857,3.245.105,7.706,2.141,7.706,2.141a9.02,9.02,0,0,0,.7,3.014c.036.093.077.183.114.272a8.627,8.627,0,0,0,4.015,4.21l.239.118a8.03,8.03,0,0,0,.758.325C150.105,648.8,140.246,655.412,140.246,655.412Z" transform="translate(280.081 -31.787)" fill="#fbbebe"/>
    <path id="Path_240" data-name="Path 240" d="M149.66,641.95a9.527,9.527,0,0,1-11.762,2.028,6.409,6.409,0,0,0,.041-3.6c-1.785-7.54,10.914-1.716,10.914-1.716A9.211,9.211,0,0,0,149.66,641.95Z" transform="translate(269.758 -31.775)" opacity="0.1"/>
    <path id="Path_241" data-name="Path 241" d="M145.075,619.4a9.527,9.527,0,0,1-8.947,9.507h-.576a9.527,9.527,0,1,1,9.523-9.507Z" transform="translate(276.74 -15.923)" fill="#fbbebe"/>
    <path id="Path_242" data-name="Path 242" d="M140.246,669.547l-7.556,1.493-.491.1s-5.978-1.59-6.177-1.724-5.621-7.443-5.621-7.443a10.883,10.883,0,0,0,4.9-1.217,2.582,2.582,0,0,0,.227-.138,8.883,8.883,0,0,0,6.449,2.839,9.315,9.315,0,0,0,1.347-.109c1.063-.162,2.133-.268,3.2-.377,2.048-.215,5.183-.836,6.826-2.648l.239.118a8.028,8.028,0,0,0,.758.324C150.105,662.932,140.246,669.547,140.246,669.547Z" transform="translate(280.081 -45.923)" opacity="0.1"/>
    <path id="Path_243" data-name="Path 243" d="M135.694,689.026c.065,1.456,1.123,17.846,1.123,17.846H103.807l.223-10.33.178-8.262.061-2.709.264-9.393-.953-.819-5.2-4.583h0c.041-.126,1.448-4.307,1.253-4.9s2.515-2.977,3.439-3.107a12.251,12.251,0,0,0,1.553-.474c1.562-.548,3.65-1.355,3.873-1.217a23.222,23.222,0,0,0,3.707-.142h0a8.842,8.842,0,0,0,6.68,3.062,8.749,8.749,0,0,0,1.347-.105c1.063-.162,2.133-.268,3.2-.377,2.15-.227,5.5-.9,7.065-2.928a10.091,10.091,0,0,1,2.215.475,12.955,12.955,0,0,0,3.245.446,16.5,16.5,0,0,1,2.515.925,17.5,17.5,0,0,0,2.381.925s1.521.406,1.918,4.234.811,6.023.811,6.023l-7.873,6.814S135.625,687.57,135.694,689.026Z" transform="translate(293.17 -46.083)" fill="#6c63ff"/>
    <path id="Path_244" data-name="Path 244" d="M68.638,688.031l1.156,1.854,4.336,1.529,2.977-5.431-2.746-1.854-4.4-1.72-2.511,1.456Z" transform="translate(322.911 -33.647)" fill="#fbbebe"/>
    <path id="Path_245" data-name="Path 245" d="M188.692,770.069s6.153-.466,8.667-3.31,8.862-4.364,8.862-4.364,15.283-1.789,9.264,11.709a3.91,3.91,0,0,1-1.192,1.983c-.787.462-2.709,1.655-2.709,1.655L188.1,775.69Z" transform="translate(239.839 -106.55)" fill="#65617d"/>
    <path id="Path_246" data-name="Path 246" d="M183.2,796.871a7.3,7.3,0,0,1-1.217,4.056c-3.95.353-12.7,1.176-14.528,1.683-2.251.625-6.8-.462-7.3-.584h-.045s-.876-2.661-1.294-4.364c-.191-.771-.284-1.347-.162-1.391.406-.13,4.056-1.124,3.971-.564s10.914-4.267,10.914-4.267l.337,4.234C174.983,796.94,183.2,795.034,183.2,796.871Z" transform="translate(257.377 -123.862)" opacity="0.1"/>
    <path id="Path_247" data-name="Path 247" d="M195.089,793.613l-.462,1.72a13.751,13.751,0,0,1-3.707,2.908c-2.182,1.128-6.019,2.977-6.019,2.977s-14.09,1.192-16.475,1.854-7.341-.58-7.341-.58-1.854-5.621-1.456-5.755,4.036-1.123,3.971-.56,10.914-4.267,10.914-4.267Z" transform="translate(256.796 -124.141)" fill="#65617d"/>
    <path id="Path_248" data-name="Path 248" d="M150.41,823.307s6.927.487,8.574,1.115,13.413-.243,13.413-.243,7.6.15,9.783.811,1.4-6.66-2.616-7.483-9.686.406-9.686.406l-7.167-.961c-.775-.1-5.881.049-5.881.049Z" transform="translate(262.242 -139.006)" fill="#fbbebe"/>
    <path id="Path_249" data-name="Path 249" d="M83.31,787.66s9.154.811,11.669,2.324Z" transform="translate(302.127 -121.615)" opacity="0.1"/>
    <path id="Path_250" data-name="Path 250" d="M209.463,772.85s-7.167,1.744-9.973,4.311Z" transform="translate(233.069 -112.812)" opacity="0.1"/>
    <path id="Path_251" data-name="Path 251" d="M84.62,782.52c.146.049,4.214.584,4.117.969S84.62,782.52,84.62,782.52Z" transform="translate(301.349 -118.559)" opacity="0.1"/>
    <path id="Path_252" data-name="Path 252" d="M68.86,801.681l.527,1.983a8.428,8.428,0,0,1,1.456,1.391c.264.466,1.789.592,1.789.592a11.3,11.3,0,0,1,1.983,1.128c.4.4,4.7,1.651,8.732,2.182s11.511,1.521,13.1,2.028a18.97,18.97,0,0,0,3.439.73s2.977,1.586,4.563,1.188,4.3-7.6,4.3-7.6-10.452-2.434-10.781-3.245-10.4-4.474-10.4-4.474l-5.954.142Z" transform="translate(310.717 -127.511)" opacity="0.1"/>
    <path id="Path_253" data-name="Path 253" d="M67.88,797.219l.531,1.983a8.541,8.541,0,0,1,1.452,1.387c.268.466,1.789.6,1.789.6a11.294,11.294,0,0,1,1.983,1.128c.4.4,4.7,1.651,8.732,2.182s11.511,1.521,13.1,2.028a18.965,18.965,0,0,0,3.439.73s2.977,1.586,4.563,1.188,4.3-7.6,4.3-7.6-10.456-2.434-10.785-3.245-15.084-6.814-15.084-6.814l-4.648-1.038Z" transform="translate(311.299 -122.851)" fill="#65617d"/>
    <path id="Path_254" data-name="Path 254" d="M91.969,684.05l-1.156.661-2.231,15.218s-1.18,1.123-.811,1.849a3.188,3.188,0,0,1-.069,1.987s-1.991.86-1.549,1.387a2.275,2.275,0,0,1-.065,2.182c-.3.661-.811,1.854,0,2.052s.138,2.778.138,2.778,2.79-.316,2.588,1.322c-.085.661,3.155,2.778,3.155,2.778s-3.683-6.684,4.567-5.755l.71-3.764s.71-2.121,0-2.782.162-3.8.162-3.8l.154-13.66Z" transform="translate(300.736 -60.028)" fill="#6c63ff"/>
    <path id="Path_255" data-name="Path 255" d="M96.8,732.5c.146.239,4.6.734,4.891,1.529S96.8,732.5,96.8,732.5Z" transform="translate(294.109 -88.827)" opacity="0.1"/>
    <path id="Path_256" data-name="Path 256" d="M93.34,739.479s.6-1.89,2.028-1.549S93.34,739.479,93.34,739.479Z" transform="translate(296.165 -92.03)" opacity="0.1"/>
    <path id="Path_257" data-name="Path 257" d="M91.43,745.189s1.067-2.515,2.519-2.324S91.43,745.189,91.43,745.189Z" transform="translate(297.301 -94.982)" opacity="0.1"/>
    <path id="Path_258" data-name="Path 258" d="M192.022,743.921l-.462,2.778s-4.782,8.732-5.626,8.866-5.557-5.824-5.557-5.824l-1.257-5.82,4.948-.937,2.2-2.174S191.823,741.341,192.022,743.921Z" transform="translate(245.177 -93.767)" fill="#fbbebe"/>
    <path id="Path_259" data-name="Path 259" d="M195.092,687.906l1.789,1.257v6.68s1.387-.134,1.055.6-.99,1.123-.406,1.785.462,1.918-.069,2.052-1.456.661-.592.99,1.387.929,1.387,1.326a2.385,2.385,0,0,1-.264,1.452c-.333.466-.661,1.525-.264,1.918s-.333,2.434-.333,2.434,1.257,3.245.065,4.169c0,0-.527,1.849-.592,1.983,0,0,.831-6.441-7.491-3.715l-.211-3.366c-.057-.909.718-1.176.292-1.716s-1.5-1.789-.994-2.117.333-.929.134-1.391-.9-.462-.268-1.026,1.01-1.091.637-1.355-1.018-1.128-.5-1.521.531-6.153.531-6.153S191.121,683.737,195.092,687.906Z" transform="translate(239.856 -61.633)" fill="#6c63ff"/>
    <path id="Path_260" data-name="Path 260" d="M203.31,717.211s2.543-.689,2.628,0S203.31,717.211,203.31,717.211Z" transform="translate(230.798 -79.557)" opacity="0.1"/>
    <path id="Path_261" data-name="Path 261" d="M196.26,721.687s3.488-.872,3.922-.195S196.26,721.687,196.26,721.687Z" transform="translate(234.989 -82.131)" opacity="0.1"/>
    <path id="Path_262" data-name="Path 262" d="M194.35,726.526s5.232-.726,5.569.341S194.35,726.526,194.35,726.526Z" transform="translate(236.124 -85.133)" opacity="0.1"/>
    <path id="Path_263" data-name="Path 263" d="M196.26,732.5c.195.045,5.037.406,5.135,1.306S196.26,732.5,196.26,732.5Z" transform="translate(234.989 -88.827)" opacity="0.1"/>
    <rect id="Rectangle_47" data-name="Rectangle 47" width="41.472" height="23.557" rx="10.47" transform="translate(392.345 646.65)" fill="#3f3d56"/>
    <circle id="Ellipse_24" data-name="Ellipse 24" cx="1.529" cy="1.529" r="1.529" transform="translate(411.553 656.899)" fill="#e7effd"/>
    <path id="Path_264" data-name="Path 264" d="M117.47,704.25s3.975,3.038,7.045.722C124.515,704.96,119.307,705.446,117.47,704.25Z" transform="translate(281.822 -72.035)" opacity="0.1"/>
    <path id="Path_265" data-name="Path 265" d="M167.09,706.27s3.975,3.038,7.049.722C174.139,706.992,168.944,707.462,167.09,706.27Z" transform="translate(252.328 -73.236)" opacity="0.1"/>
    <path id="Path_266" data-name="Path 266" d="M132.624,619.493a9.5,9.5,0,0,1-1.44,5.042,14.545,14.545,0,0,0-2.15-7.524c-1.322-2.028-5.338-5.589-8.112-4.6a1.971,1.971,0,0,0-1.217,1.3c-.272,1.038.531,1.472,1.042,2.3a7.053,7.053,0,0,1,.965,4.753,5.908,5.908,0,0,1-.142.657c-.434,1.622-1.428,3.5-.406,4.839.718.933,2.255,1.253,2.466,2.413a1.468,1.468,0,0,1,0,.324c-.049.779-.714,1.468-1,2.231a3.646,3.646,0,0,0,.2,2.7,17.7,17.7,0,0,1,1.371,3.622,7.124,7.124,0,0,1-.657,3.581,15.923,15.923,0,0,0-1.1,3.366c-.316,2.2.487,4.741-.9,6.49a.949.949,0,0,1-.6.406c-.888.093-.734-1.5-1.448-2.028a6.266,6.266,0,0,1-.191,2.762,2.13,2.13,0,0,1-2.129,1.456c-.105-.694-.211-1.387-.312-2.081a6.056,6.056,0,0,1-2.206,1.379,16.11,16.11,0,0,1,2.3-6.226c-2.328,1.123-3.687,3.549-4.9,5.832-.758,1.428-1.537,2.989-1.274,4.583.105.649.406,1.265.446,1.918a1.629,1.629,0,0,1-.783,1.667,1.424,1.424,0,0,1-1.537-.475l-.065-.081-.105-.146a2.408,2.408,0,0,1-.174-.316,5.956,5.956,0,0,1-.373-1.217l-.045-.178a21.628,21.628,0,0,1-.718-8.229,15.377,15.377,0,0,0,.434-3.026,5.556,5.556,0,0,0-.345-1.691c-.539-1.513-1.582-2.9-2.174-4.425a.129.129,0,0,1,0-.036,2.428,2.428,0,0,1,.11-2.462,4.934,4.934,0,0,1,1.1-.746,4.972,4.972,0,0,0,1.878-3.533,11.9,11.9,0,0,0,.146-1.858c1.562-.548,3.65-1.355,3.873-1.217a23.215,23.215,0,0,0,3.707-.142,4.835,4.835,0,0,0,2.271-2.632c.037-.109.073-.223.105-.341a9.527,9.527,0,1,1,14.078-8.416Z" transform="translate(289.191 -16.018)" opacity="0.1"/>
    <path id="Path_267" data-name="Path 267" d="M121.571,605.426c-.434,1.622-1.428,3.5-.406,4.839.718.933,2.255,1.253,2.466,2.413.162.917-.653,1.687-.982,2.559-.787,2.077,1.261,4.121,1.57,6.319.341,2.389-1.4,4.563-1.748,6.948-.316,2.2.487,4.741-.9,6.49a.97.97,0,0,1-.6.406c-.888.093-.738-1.5-1.448-2.028a6.193,6.193,0,0,1-.191,2.758,2.125,2.125,0,0,1-2.129,1.456l-.312-2.081a6.054,6.054,0,0,1-2.206,1.379,16.13,16.13,0,0,1,2.3-6.226c-2.328,1.124-3.687,3.549-4.9,5.832-.758,1.428-1.537,2.989-1.274,4.579.105.653.406,1.27.446,1.923a1.629,1.629,0,0,1-.783,1.667,1.448,1.448,0,0,1-1.622-.552,4.161,4.161,0,0,1-.653-1.683,22.076,22.076,0,0,1-.763-8.408,15.376,15.376,0,0,0,.434-3.026c-.081-2.235-1.728-4.056-2.535-6.149a2.435,2.435,0,0,1,.114-2.466,5,5,0,0,1,1.107-.746,5,5,0,0,0,1.878-3.533,12.253,12.253,0,0,0-.126-4.417c-.466-2.178-1.529-4.3-1.265-6.49s1.748-3.963,2.746-5.909a13.964,13.964,0,0,0,1.42-8.173c-.174-1.3-.475-2.815.406-3.788,1.063-1.168,3.119-.73,4.332-1.744a8.562,8.562,0,0,0,1.318-1.89,4.628,4.628,0,0,1,4.944-1.764c.831.239,1.582.714,2.405.982a18.972,18.972,0,0,0,3.63.475,4.413,4.413,0,0,1,3.2,1.557c.373.531.539,1.184.88,1.736.73,1.184,2.125,1.752,3.18,2.661a6.177,6.177,0,0,1,1.736,6.591c-.629,1.756-2.085,3.306-1.963,5.163a11.2,11.2,0,0,1,.272,2.271c-.292,2.109-3.35,2.527-4.409,4.376a15.094,15.094,0,0,0-2.15-8.684c-1.322-2.028-5.338-5.589-8.112-4.6a1.971,1.971,0,0,0-1.217,1.3c-.272,1.038.527,1.472,1.042,2.3a7,7,0,0,1,.872,5.378Z" transform="translate(289.2 -0.418)" fill="#3f3d56"/>
    <g id="Group_15" data-name="Group 15" transform="translate(394.291 590.48)" opacity="0.2">
      <path id="Path_268" data-name="Path 268" d="M111.48,650.749a12.305,12.305,0,0,0-.264-2.839c-.406-1.85-1.217-3.65-1.3-5.52-.105,2.068.86,4.056,1.3,6.116a12.167,12.167,0,0,1,.264,2.243Z" transform="translate(-107.975 -625.745)"/>
      <path id="Path_269" data-name="Path 269" d="M124.841,698.792c.162-.3.329-.588.507-.872-2.328,1.119-3.687,3.549-4.9,5.832a8.148,8.148,0,0,0-1.314,4.226,9.762,9.762,0,0,1,1.314-3.65C121.572,702.235,122.818,700,124.841,698.792Z" transform="translate(-113.452 -658.752)"/>
      <path id="Path_270" data-name="Path 270" d="M114.506,719.2a1.416,1.416,0,0,1-.775,1.164,1.452,1.452,0,0,1-1.622-.556,4.226,4.226,0,0,1-.653-1.679,30.067,30.067,0,0,1-.921-6.007,26.59,26.59,0,0,0,.921,6.6,4.226,4.226,0,0,0,.653,1.679,1.444,1.444,0,0,0,1.622.552,1.6,1.6,0,0,0,.787-1.667Z" transform="translate(-108.345 -667.193)"/>
      <path id="Path_271" data-name="Path 271" d="M144.741,632.27a6.386,6.386,0,0,1-.215,1.407c-.32,1.217-.949,2.547-.836,3.7a20.22,20.22,0,0,1,.836-3.111,6.639,6.639,0,0,0,.215-2Z" transform="translate(-128.046 -619.729)"/>
      <path id="Path_272" data-name="Path 272" d="M120.126,605.057a13.567,13.567,0,0,0-.114-2.109c-.069-.515-.154-1.063-.183-1.6a12.111,12.111,0,0,0,.183,2.194A13.484,13.484,0,0,1,120.126,605.057Z" transform="translate(-113.871 -601.35)"/>
      <path id="Path_273" data-name="Path 273" d="M149.177,655.015v-.045a15.656,15.656,0,0,1-.969,2.008,2.807,2.807,0,0,0-.162,1.294,2.559,2.559,0,0,1,.162-.7C148.524,656.7,149.339,655.931,149.177,655.015Z" transform="translate(-130.633 -633.222)"/>
      <path id="Path_274" data-name="Path 274" d="M107.942,688.227c-.081-2.235-1.728-4.056-2.531-6.149a3.954,3.954,0,0,1-.26-1.018,3.387,3.387,0,0,0,.26,1.622c.811,2.048,2.393,3.853,2.523,6.039C107.942,688.551,107.946,688.389,107.942,688.227Z" transform="translate(-105.139 -648.73)"/>
      <path id="Path_275" data-name="Path 275" d="M150.376,617.87c-1.322-2.028-5.342-5.589-8.112-4.6a1.955,1.955,0,0,0-1.217,1.3,1.424,1.424,0,0,0-.024.7.743.743,0,0,1,.024-.1,1.955,1.955,0,0,1,1.217-1.3c2.762-.99,6.781,2.567,8.112,4.6a14.681,14.681,0,0,1,2.15,7.824A15.008,15.008,0,0,0,150.376,617.87Z" transform="translate(-126.45 -608.334)"/>
      <path id="Path_276" data-name="Path 276" d="M173.841,635.438c-.288,2.105-3.338,2.527-4.4,4.364v.608c1.059-1.845,4.117-2.267,4.409-4.376a2.68,2.68,0,0,0,0-.625A.166.166,0,0,1,173.841,635.438Z" transform="translate(-143.36 -621.596)"/>
      <path id="Path_277" data-name="Path 277" d="M181.573,614.711c-.629,1.752-2.085,3.3-1.963,5.163v.081c.134-1.622,1.383-3.062,1.951-4.652a5.727,5.727,0,0,0,.324-2.263A5.626,5.626,0,0,1,181.573,614.711Z" transform="translate(-149.401 -608.299)"/>
      <path id="Path_278" data-name="Path 278" d="M142.782,704.295a.961.961,0,0,1-.6.406c-.888.093-.734-1.5-1.448-2.028,0,.211.032.406.045.637.657.572.539,2.085,1.4,2a.961.961,0,0,0,.6-.406,5.2,5.2,0,0,0,.848-3.549A4.673,4.673,0,0,1,142.782,704.295Z" transform="translate(-126.295 -660.791)"/>
      <path id="Path_279" data-name="Path 279" d="M133.448,709.516a2.1,2.1,0,0,1-2.125,1.456l-.316-2.081a6.039,6.039,0,0,1-2.093,1.339c-.041.211-.081.426-.114.637a6.055,6.055,0,0,0,2.206-1.379l.316,2.081a2.114,2.114,0,0,0,2.125-1.456,4.673,4.673,0,0,0,.247-1.882A3.955,3.955,0,0,1,133.448,709.516Z" transform="translate(-119.203 -664.88)"/>
      <path id="Path_280" data-name="Path 280" d="M147.873,683.819a10.475,10.475,0,0,0-.081,1.683,7.969,7.969,0,0,1,.081-1.087c.329-2.275,1.923-4.36,1.781-6.615C149.528,679.832,148.177,681.746,147.873,683.819Z" transform="translate(-130.489 -646.793)"/>
    </g>
    <path id="Path_281" data-name="Path 281" d="M613.2,262.255v39.821c0,2.1-2.028,3.813-4.53,3.813H512.78c-2.5,0-4.53-1.712-4.53-3.813V262.255A4.564,4.564,0,0,1,512.78,258h95.886A4.564,4.564,0,0,1,613.2,262.255Z" transform="translate(49.539 193.22)" fill="#fff"/>
    <path id="Path_282" data-name="Path 282" d="M613.2,262.53V273.64H508.25V262.53a4.53,4.53,0,0,1,4.53-4.53h95.886A4.53,4.53,0,0,1,613.2,262.53Z" transform="translate(49.539 193.22)" fill="#6c63ff" opacity="0.2"/>
    <circle id="Ellipse_25" data-name="Ellipse 25" cx="3.03" cy="3.03" r="3.03" transform="translate(560.515 456.01)" fill="#fff"/>
    <circle id="Ellipse_26" data-name="Ellipse 26" cx="3.03" cy="3.03" r="3.03" transform="translate(569.328 456.01)" fill="#fff"/>
    <circle id="Ellipse_27" data-name="Ellipse 27" cx="3.03" cy="3.03" r="3.03" transform="translate(578.142 456.01)" fill="#fff"/>
    <circle id="Ellipse_28" data-name="Ellipse 28" cx="11.843" cy="11.843" r="11.843" transform="translate(630.224 470.883)" fill="#6c63ff"/>
    <rect id="Rectangle_48" data-name="Rectangle 48" width="49.944" height="1.764" transform="translate(616.803 476.517) rotate(180)" fill="#6c63ff"/>
    <rect id="Rectangle_49" data-name="Rectangle 49" width="49.944" height="1.764" transform="translate(616.803 480.816) rotate(180)" fill="#6c63ff" opacity="0.2"/>
    <rect id="Rectangle_50" data-name="Rectangle 50" width="49.944" height="1.764" transform="translate(616.803 485.115) rotate(180)" fill="#6c63ff" opacity="0.2"/>
    <rect id="Rectangle_51" data-name="Rectangle 51" width="49.944" height="1.764" transform="translate(616.803 489.406) rotate(180)" fill="#6c63ff" opacity="0.2"/>
    <path id="Path_283" data-name="Path 283" d="M290.333,288.809c2.795,1.874,7.033.982,7.033.982s6.4-3.03,8.29-3.03,6.489-1.874,6.489-1.874l-.154-1.261-.458-3.8c2.916,2.271,6.153,1.489,7.747,1.322,1.712-.178,10.862-5.617,11.738-5.974a2.3,2.3,0,0,0,.811-.811h0a20.5,20.5,0,0,0,1.545-2.839h0c.576-.5.994-.909.961-1a6.606,6.606,0,0,1,.564-1.5,7.345,7.345,0,0,0,2.774-1,2.433,2.433,0,0,0,.9-1.963s8.923-9,7.751-12.748,2.884-3.833,2.884-3.833,6.222-2.673,7.086-4.279c.535-.986,5.2-3.151,8.708-4.676l.434-.187c1.363,2.989,8.282.69,9.645-.576,1.44-1.334,5.678-1.959,5.678-1.959s.178-17.473,1.533-19.7c.641-1.055.811-4.506.779-7.836v-.357c1.894-.369,6.4-1.217,8.493-1.432a8.172,8.172,0,0,0,3.768-1.764l.122.158a2.616,2.616,0,0,0,1.156.191,1.8,1.8,0,0,0,1.01-.191c.811-.446,3.784-1.338,4.867-1.785s-.183-3.65-.994-4.279-1.351-1.424-.9-1.781-1.083-1.249-1.983-1.428A29.392,29.392,0,0,1,395,196.172s-.99-2.048-2.612-2.048S388.6,192.5,388.6,192.5c-.089-.714-1.8-.811-1.8-.811s-6.489-4.989-7.572-4.368-4.056-.977-4.056-.977-3.65.406-4.506-.264h0a1.026,1.026,0,0,0-.219-.6,6.408,6.408,0,0,0-2.028-2.121,8.378,8.378,0,0,0,.1-1.286,5.13,5.13,0,0,0-.02-.56.721.721,0,0,0,0-.093c.045-.406.085-.836.13-1.253a2.572,2.572,0,0,1,.312-1.18c.154-.235.377-.406.548-.645a1.473,1.473,0,0,0,.109-.166l.028-.049c.024-.045.045-.089.065-.134a.219.219,0,0,0,.02-.045,1.878,1.878,0,0,0,.118-.381s0,0,0-.032.02-.118.024-.178v-.024a3.8,3.8,0,0,0-.2-1.529,10.221,10.221,0,0,1-.738-2.535,8.225,8.225,0,0,0-.045-1.306,3.33,3.33,0,0,0-2.186-2,12.206,12.206,0,0,1-3.074-2c-.909-.706-2.409-.349-3.557-.276a30.962,30.962,0,0,0-7.654,1.768,7.6,7.6,0,0,0-2.677,1.326,2.957,2.957,0,0,0-.977,1.655h0a2.1,2.1,0,0,0-.032.45v.041a.636.636,0,0,0,.02.17.239.239,0,0,0,0,.057,1.914,1.914,0,0,0,.049.207h0c.1.329.3.625.406.953a2.2,2.2,0,0,1,.061.219v.024l.036.215h0a9.415,9.415,0,0,1-.333,2.482,3.435,3.435,0,0,0-.041.357h0a4.311,4.311,0,0,0,.122,1.424h0a.658.658,0,0,0,.053.166l.024.073c0,.049.036.093.053.142a.932.932,0,0,1,.041.093c0,.041.036.081.057.122s.037.069.053.1a1.1,1.1,0,0,0,.065.11l.065.105.065.1.081.1c.024.028.045.061.073.089l.093.1.073.077.114.093.077.065.138.093.069.045a1.719,1.719,0,0,0,.227.118c.519.239,1.168.32,1.484.775a1.1,1.1,0,0,1,.15.357v.17a7.175,7.175,0,0,0,.045.783,3.674,3.674,0,0,0,.02.406,1.31,1.31,0,0,0,.089.3,8.112,8.112,0,0,0,2.734,4.591c.028.138.057.3.093.483a8.98,8.98,0,0,1-2.624,1.371c-2.17.71-5.22,3.618-5.22,3.618s-1.521,10.951-1.886,12.3a60.02,60.02,0,0,0-.637,6.51,15.012,15.012,0,0,1-.9,3.208c-.381.754-.312,4,.754,5.962a4.94,4.94,0,0,1-.665,1.079c-2.162,2.5-8.651,2.409-10.817,2.409a2.732,2.732,0,0,0-2.689,1.4c-3.963,1.123-16.791,4.786-18.312,5.451-1.8.787-2.794,8.57-2.794,8.57s-3.784,12.926-3.606,14.63-1.261,6.408-1.261,6.408,0,5.334-.612,5.7h-.02c-.629.268-.539,2.839-.539,2.839s.462.138,1.188.32a20.622,20.622,0,0,1-1.46,4.433c-.28-.357-.556-.507-.718-.089-.45,1.132-7.211,9.154-8.923,9.154a5.2,5.2,0,0,0-3.05,1.574C289.282,286.558,288.873,287.831,290.333,288.809Zm31.007-46.46a75.151,75.151,0,0,0,15.867-.543,18.384,18.384,0,0,1-1.172,3.127,31.77,31.77,0,0,0-2.077,7.045c0,1.071-2.434,10.249-3.151,10.7a2.673,2.673,0,0,0-.787,1.136,10.691,10.691,0,0,0-.475,1.363,5.48,5.48,0,0,0,.061.657c-.539.495-1.107,1.014-1.622,1.472h0a35.752,35.752,0,0,0-4.283,2.79c-1.067.973-6.128,2.182-6.128,2.182a31.149,31.149,0,0,0-3.65,1.849c-1.562.945-3.127,2.142-3.537,3.322.178-1.991.466-4.389.657-5.918h.288c2.527-.154,2.15-2.567,2.028-3.164a1.145,1.145,0,0,0-.032-.134c1.8-1.963,5.861-16.581,5.317-18.187a2.874,2.874,0,0,1,.665-3.03,3.634,3.634,0,0,0,.057-2.766C318.915,243.265,321.34,242.348,321.34,242.348ZM383.3,203.006l-.479.118v-.1a2.475,2.475,0,0,0,.479.012Zm-26.189-13.449c-.073.089-.146.174-.223.26l-.093.1v-.495Zm-9.028,17.294.032.5s-.049.3-.142.811ZM389.5,201.87l-1.574.268c.223-.081.442-.174.657-.276a1.493,1.493,0,0,1,.5-.134,2.68,2.68,0,0,1,.588.126.81.81,0,0,0-.17.045Z" transform="translate(179.638 246.997)" fill="url(#linear-gradient-2)"/>
    <path id="Path_284" data-name="Path 284" d="M390.5,407.038a34.145,34.145,0,0,0-1.72,4.011c.089.264-3.894,3.452-3.894,3.452l-4.336-3.1.442-2.121s4.867-4.384,5.22-4.891S390.5,407.038,390.5,407.038Z" transform="translate(125.445 106.238)" fill="#be6f72"/>
    <path id="Path_285" data-name="Path 285" d="M343.263,424.826c3.009,2.92,6.55,2.028,8.229,1.858s10.659-5.573,11.523-5.93a2.3,2.3,0,0,0,.787-.811h0a20.25,20.25,0,0,0,1.521-2.807c-.061,0-3,.856-3.744,0,0,0-1.241-1.521-1.5-1.521s-.02-2.665-.02-2.665a34.473,34.473,0,0,0-4.226,2.754c-1.063.973-6.015,2.166-6.015,2.166a30.4,30.4,0,0,0-3.561,1.837C343.9,421.147,341.556,423.167,343.263,424.826Z" transform="translate(147.956 101.116)" fill="#3f3d56"/>
    <path id="Path_286" data-name="Path 286" d="M343.263,434.7c3.009,2.92,6.55,2.028,8.229,1.858s10.659-5.573,11.523-5.93a2.3,2.3,0,0,0,.787-.811c-1.046-.625-7.885,3.723-9.8,4.518s-6.757.357-9.5-.811c-1.371-.572,0-2.336,1.748-3.959C343.9,431.026,341.556,433.046,343.263,434.7Z" transform="translate(147.956 91.237)" opacity="0.1"/>
    <path id="Path_287" data-name="Path 287" d="M332.03,417.655s-1.261,9.466-.941,10.708-7.909-4.247-7.909-4.247,2.88-5.934,2.028-7.3S332.03,417.655,332.03,417.655Z" transform="translate(159.546 99.084)" fill="#be6f72"/>
    <path id="Path_288" data-name="Path 288" d="M325.574,353.634s5.131,1.5,7.962,1.326c2.482-.154,2.109-2.547,1.979-3.139a1.146,1.146,0,0,0-.032-.134c1.772-1.947,5.751-16.455,5.22-18.049a2.867,2.867,0,0,1,.653-3.005,3.624,3.624,0,0,0,.057-2.746c-.442-.973,1.947-1.858,1.947-1.858a72.826,72.826,0,0,0,15.571-.539,18.21,18.21,0,0,1-1.152,3.107,31.62,31.62,0,0,0-2.028,6.988c0,1.063-2.389,10.176-3.095,10.618a2.645,2.645,0,0,0-.771,1.124,10.6,10.6,0,0,0-.466,1.351c.264,5.93,6.988,3.63,7.962,2.839a2.589,2.589,0,0,0,.377-.385,2.462,2.462,0,0,0,.507-1.562s8.757-8.923,7.609-12.65,2.839-3.8,2.839-3.8,6.1-2.653,6.952-4.247c.523-.977,5.1-3.127,8.55-4.64,2.158-.945,3.873-1.622,3.873-1.622l-1.436-5.147L387.52,313.4l-2.129-.811-6.806-2.563-12.22-1.679-1.119.146-11.876,1.533s-17.355,4.936-19.107,5.719-2.742,8.517-2.742,8.517-3.715,12.829-3.541,14.516-1.253,6.335-1.253,6.335,0,5.273-.6,5.65h-.02C325.489,351.059,325.574,353.634,325.574,353.634Z" transform="translate(158.126 163.292)" fill="#3f3d56"/>
    <path id="Path_289" data-name="Path 289" d="M369.43,341.673A72.826,72.826,0,0,0,385,341.134c.531-1.671,7.966-6.27,7.966-6.27C386.866,333.358,369.43,341.673,369.43,341.673Z" transform="translate(132.055 147.64)" opacity="0.1"/>
    <path id="Path_290" data-name="Path 290" d="M389.28,405.793c.264,5.93,6.988,3.63,7.962,2.839a2.591,2.591,0,0,0,.377-.385c-2.352.868-6.518,1.533-7.872-3.8A10.592,10.592,0,0,0,389.28,405.793Z" transform="translate(120.256 106.169)" fill="#444053"/>
    <path id="Path_291" data-name="Path 291" d="M325.574,415.833s5.131,1.5,7.962,1.326c2.482-.154,2.109-2.547,1.979-3.139a46.082,46.082,0,0,1-9.389-1.03h-.02C325.489,413.258,325.574,415.833,325.574,415.833Z" transform="translate(158.126 101.093)" fill="#444053"/>
    <path id="Path_292" data-name="Path 292" d="M389.28,405.793c.264,5.93,6.988,3.63,7.962,2.839a2.591,2.591,0,0,0,.377-.385c-2.352.868-6.518,1.533-7.872-3.8A10.592,10.592,0,0,0,389.28,405.793Z" transform="translate(120.256 106.169)" opacity="0.1"/>
    <path id="Path_293" data-name="Path 293" d="M325.574,415.833s5.131,1.5,7.962,1.326c2.482-.154,2.109-2.547,1.979-3.139a46.082,46.082,0,0,1-9.389-1.03h-.02C325.489,413.258,325.574,415.833,325.574,415.833Z" transform="translate(158.126 101.093)" opacity="0.1"/>
    <path id="Path_294" data-name="Path 294" d="M293.014,444.877c2.742,1.858,6.9.973,6.9.973s6.279-3.01,8.136-3.01,6.38-1.845,6.38-1.845l-.154-1.253-.73-6s-6.9-.174-7.167-.811c0,0-1.241-3.046-1.683-1.922s-7.078,9.089-8.757,9.089a5.05,5.05,0,0,0-3,1.557C291.984,442.642,291.579,443.9,293.014,444.877Z" transform="translate(178.035 90.532)" fill="#3f3d56"/>
    <path id="Path_295" data-name="Path 295" d="M353.07,336.65s5.751,3.65,4.157,4.425S353.07,336.65,353.07,336.65Z" transform="translate(141.779 146.47)" opacity="0.1"/>
    <path id="Path_296" data-name="Path 296" d="M347.18,353.89s4.952,4.7,3.095,4.827S347.18,353.89,347.18,353.89Z" transform="translate(145.281 136.222)" opacity="0.1"/>
    <path id="Path_297" data-name="Path 297" d="M334.09,390.75s2.515,4.729,1.566,5.548S334.09,390.75,334.09,390.75Z" transform="translate(153.061 114.312)" opacity="0.1"/>
    <path id="Path_298" data-name="Path 298" d="M402.273,397.978c-.884.884,8.408-2.92,6.283-3.1S402.273,397.978,402.273,397.978Z" transform="translate(112.568 111.862)" opacity="0.1"/>
    <path id="Path_299" data-name="Path 299" d="M448.17,221.341l.3-.045c1.1-.166,5.09-.791,8.667-1.57.872-.191,1.716-.385,2.49-.592,2.742-.718,4.579-1.493,3.411-2.125a6.266,6.266,0,0,1-2.8-3.691c-.041-.13-.081-.256-.114-.377a9.7,9.7,0,0,1-.361-2.028s-9.994-3.541-8.047,0a3.355,3.355,0,0,1-.592,4.145,7.739,7.739,0,0,1-2.154,1.622Z" transform="translate(85.251 222.144)" fill="#be6f72"/>
    <path id="Path_300" data-name="Path 300" d="M442.589,232.17s-3.573,2.567-7.228.442-8.412,18.759-8.412,18.759l-4.956,12.208s-3.208,2.653.783,3.8,12.857-1.152,15.1,2.21a9.792,9.792,0,0,0,6.915,3.877c.406,0,2.121-12.654,2.121-12.654l.438-18.312Z" transform="translate(101.536 208.574)" opacity="0.1"/>
    <path id="Path_301" data-name="Path 301" d="M423.173,265.639c4,1.152,12.853-1.148,15.1,2.21a8.647,8.647,0,0,0,3.8,3.066,9.954,9.954,0,0,0,3.139.811c.057,0,.142-.231.239-.633.621-2.559,1.882-12.018,1.882-12.018l.438-18.276-4.206-9.11L443,230.43a7.654,7.654,0,0,1-1.821.884,6.417,6.417,0,0,1-5.411-.442c-1.071-.625-2.239.734-3.354,2.961-2.689,5.37-5.074,15.794-5.074,15.794l-4.952,12.208a4.255,4.255,0,0,0-.337.324C421.348,262.9,420.03,264.731,423.173,265.639Z" transform="translate(101.301 209.608)" fill="#f3f5f9"/>
    <path id="Path_302" data-name="Path 302" d="M471.074,259.046a23.059,23.059,0,0,0-.118,4.66,54.653,54.653,0,0,0,.811,6.579,2.438,2.438,0,0,0,.11.406c2.158-.945,3.873-1.622,3.873-1.622l-1.436-5.147c.621-2.559,1.882-12.018,1.882-12.018l.466-18.312-4.206-9.11c2.742-.718,4.579-1.493,3.411-2.125a6.488,6.488,0,0,1-2.916-4.056,15.038,15.038,0,0,1-2.515,2.705l-.057.045-.316,3.087-.1.949-.207,1.971s.973,23.265,1.683,24.6.353,3.89-.268,6.9C471.143,258.689,471.111,258.863,471.074,259.046Z" transform="translate(72.418 216.818)" opacity="0.1"/>
    <path id="Path_303" data-name="Path 303" d="M472.115,249.915c-.621,3.005-.089,7.962.617,11.762s8.229,1.326,9.645,0,5.573-1.947,5.573-1.947.178-17.339,1.5-19.554c.629-1.046.783-4.462.767-7.779,0-2.969-.158-5.845-.215-6.822v-.349s5.751-9.734,5.678-10.44-1.768-.811-1.768-.811-6.372-4.956-7.434-4.336-3.979-.973-3.979-.973-3.7.406-4.461-.292a.406.406,0,0,1-.134-.329c.085-1.132-3.772-3.549-3.89-3.626,3.245,2.928-2.028,7.434-2.6,7.925l-.057.049-.617,6s.973,23.269,1.679,24.6S472.731,246.906,472.115,249.915Z" transform="translate(71.835 225.068)" fill="#67647e"/>
    <circle id="Ellipse_29" data-name="Ellipse 29" cx="0.442" cy="0.442" r="0.442" transform="translate(543.849 449.265)" fill="#444053"/>
    <path id="Path_304" data-name="Path 304" d="M472.74,213.275l2.685,2.6,3.942-6.575a.406.406,0,0,1-.138-.324c.089-1.136-3.768-3.553-3.89-3.626C478.593,208.274,473.336,212.78,472.74,213.275Z" transform="translate(70.647 224.516)" opacity="0.1"/>
    <circle id="Ellipse_30" data-name="Ellipse 30" cx="0.442" cy="0.442" r="0.442" transform="translate(544.733 463.42)" opacity="0.1"/>
    <circle id="Ellipse_31" data-name="Ellipse 31" cx="0.442" cy="0.442" r="0.442" transform="translate(544.733 463.242)" fill="#444053"/>
    <path id="Path_305" data-name="Path 305" d="M472.3,212.385l2.689,2.6,3.938-6.575a.406.406,0,0,1-.134-.329c.085-1.132-3.772-3.549-3.89-3.626C478.153,207.392,472.9,211.9,472.3,212.385Z" transform="translate(70.908 225.045)" fill="#67647e"/>
    <rect id="Rectangle_52" data-name="Rectangle 52" width="6.157" height="13.011" rx="1.7" transform="translate(546.578 462.336) rotate(-178.69)" fill="#3f3d56"/>
    <rect id="Rectangle_53" data-name="Rectangle 53" width="6.157" height="13.011" rx="1.7" transform="translate(546.578 462.336) rotate(-178.69)" opacity="0.1"/>
    <rect id="Rectangle_54" data-name="Rectangle 54" width="6.157" height="13.011" rx="1.7" transform="translate(546.613 462.624) rotate(-178.69)" fill="#3f3d56"/>
    <circle id="Ellipse_32" data-name="Ellipse 32" cx="0.969" cy="0.969" r="0.969" transform="translate(542.871 452.392)" fill="#67647e"/>
    <path id="Path_306" data-name="Path 306" d="M391.68,257.628c2.21.973,16.718-1.59,18.844-2.21s5.22-5.4,3.715-8.846a8.065,8.065,0,0,1,.531-6.814s3.184-6.81,3.89-8.14a62.243,62.243,0,0,0,2.389-5.836.519.519,0,0,0-.126-.406,15.459,15.459,0,0,0-2.79-2.434c-.625.227-.706-1.562-.681-2.88,0-.734.061-1.322.061-1.322s-.3.3-.775.706c-.174.146-.373.312-.6.479a9.151,9.151,0,0,1-2.786,1.525c-2.125.625-5.131,3.529-5.131,3.529l.884,13.583s-2.028,12.78-4.161,15.254-8.493,2.389-10.614,2.389A2.641,2.641,0,0,0,391.68,257.628Z" transform="translate(118.829 216.557)" opacity="0.1"/>
    <path id="Path_307" data-name="Path 307" d="M391.24,256.318c2.21.973,16.723-1.59,18.844-2.21s5.22-5.394,3.715-8.846a8.061,8.061,0,0,1,.531-6.814s3.184-6.81,3.894-8.136a62.928,62.928,0,0,0,2.389-5.84.535.535,0,0,0-.126-.406,15.587,15.587,0,0,0-2.795-2.434c-.625.227-.7-1.562-.677-2.876,0-.738.057-1.326.057-1.326s-.292.3-.771.706c-.178.15-.377.312-.6.479a9.174,9.174,0,0,1-2.79,1.525c-2.121.629-5.131,3.529-5.131,3.529l.884,13.587s-2.028,12.776-4.157,15.254-8.493,2.385-10.618,2.385A2.635,2.635,0,0,0,391.24,256.318Z" transform="translate(119.091 217.335)" fill="#67647e"/>
    <path id="Path_308" data-name="Path 308" d="M450.57,218.33s.081.466.223,1.18c.475,2.434,1.622,7.735,2.434,7.532a7.414,7.414,0,0,0,2.352-2.089,15.585,15.585,0,0,0-2.795-2.434c-.625.227-.7-1.562-.677-2.876l-.714-.617Z" transform="translate(83.825 216.8)" opacity="0.1"/>
    <path id="Path_309" data-name="Path 309" d="M451,217.45s.081.466.223,1.184c.475,2.434,1.622,7.735,2.434,7.528a7.341,7.341,0,0,0,2.352-2.085,15.586,15.586,0,0,0-2.795-2.434c-.625.227-.7-1.562-.677-2.876l-.726-.612Z" transform="translate(83.569 217.323)" fill="#67647e"/>
    <path id="Path_310" data-name="Path 310" d="M431.332,273.835s4.421-.884,5.678-2.839,9.661-3.63,8.635-1.594-8.655,8.7-8.655,8.7l-3.3,4.721-4.409-1.115L427.43,278.1Z" transform="translate(97.579 186.994)" fill="#be6f72"/>
    <path id="Path_311" data-name="Path 311" d="M455.552,294.13s-4.283,1.594-4.928,3.715S455.552,294.13,455.552,294.13Z" transform="translate(83.823 171.744)" opacity="0.1"/>
    <path id="Path_312" data-name="Path 312" d="M462.031,300.23s.406,2.21-4.981,2.028Z" transform="translate(79.973 168.118)" opacity="0.1"/>
    <path id="Path_313" data-name="Path 313" d="M517.279,230.168l1.947-.178s2.121,1.594,3.715,1.594,2.563,2.028,2.563,2.028a28.3,28.3,0,0,0,3.541,1.416c.884.174,2.389,1.063,1.947,1.415s.085,1.152.884,1.772,2.028,3.8.973,4.247-3.983,1.326-4.778,1.768a2.194,2.194,0,0,1-1.768,0s-4.689-6.1-7.078-4.956a15.463,15.463,0,0,1-5.678,1.152L511,235.031Z" transform="translate(47.904 209.869)" opacity="0.1"/>
    <path id="Path_314" data-name="Path 314" d="M424.389,260.966a2.373,2.373,0,0,0,1.647,1.148,12.5,12.5,0,0,0,5.155-.479s-8.923-2.839-.333-9.734h-2.3l-.767-.292.353-1.833.5-16.524-1.87-.422s-1.5,10.882-1.854,12.208a60.181,60.181,0,0,0-.625,6.457,14.856,14.856,0,0,1-.884,3.184A9.273,9.273,0,0,0,424.389,260.966Z" transform="translate(100.085 208.181)" fill="#67647e"/>
    <path id="Path_315" data-name="Path 315" d="M427,288.487a2.381,2.381,0,0,0,1.651,1.148,12.488,12.488,0,0,0,5.151-.479s-8.923-2.839-.329-9.734h-2.3l-.767-.292C429.137,281.381,427.154,285.352,427,288.487Z" transform="translate(97.835 180.66)" opacity="0.1"/>
    <path id="Path_316" data-name="Path 316" d="M426.11,288.487a2.373,2.373,0,0,0,1.647,1.148,12.5,12.5,0,0,0,5.155-.479s-8.923-2.839-.333-9.734h-2.3l-.767-.292C428.256,281.381,426.272,285.352,426.11,288.487Z" transform="translate(98.364 180.66)" fill="none"/>
    <path id="Path_317" data-name="Path 317" d="M426.11,288.487a2.373,2.373,0,0,0,1.647,1.148,12.5,12.5,0,0,0,5.155-.479s-8.923-2.839-.333-9.734h-2.3l-.767-.292C428.256,281.381,426.272,285.352,426.11,288.487Z" transform="translate(98.364 180.66)" fill="#67647e"/>
    <path id="Path_318" data-name="Path 318" d="M455.44,215.051a8.063,8.063,0,0,0,9.114-1.732c-.041-.13-.081-.256-.114-.377a9.7,9.7,0,0,1-.361-2.028s-9.994-3.541-8.047,0A3.342,3.342,0,0,1,455.44,215.051Z" transform="translate(80.93 222.144)" opacity="0.1"/>
    <path id="Path_319" data-name="Path 319" d="M443.81,192.693v.077a4.468,4.468,0,0,0,.045.775,7.292,7.292,0,0,0,.109.726,8.051,8.051,0,0,0,15.51,1.038c.053-.154.105-.312.146-.47a7.985,7.985,0,0,0,.292-2.146,5.056,5.056,0,0,0-.02-.556,8.051,8.051,0,0,0-16.082.556Z" transform="translate(87.843 236.815)" fill="#be6f72"/>
    <path id="Path_320" data-name="Path 320" d="M443.81,192.758a3.479,3.479,0,0,1,.045.775,3.623,3.623,0,0,0,.02.406,1.185,1.185,0,0,0,.089.3,1.5,1.5,0,0,0,2.085.767,2.235,2.235,0,0,0,.629-.811c.746-1.383,1.781-2.973,3.407-3a8.361,8.361,0,0,1,2.028.454,2.146,2.146,0,0,0,1.971-.268c.381-.349.564-.949,1.083-1.075s.99.353,1.217.811a2.449,2.449,0,0,0,.9,1.249c.215.105.462.134.673.247.961.527.519,2.373,1.517,2.673a.853.853,0,0,0,.1.024l.049-.495c.089-.9.182-1.8.272-2.7a8.051,8.051,0,0,0-16.082.556Z" transform="translate(87.843 236.827)" opacity="0.1"/>
    <path id="Path_321" data-name="Path 321" d="M453.2,171.287c.945.406,1.931,1.018,2.142,1.983a7.71,7.71,0,0,1,.045,1.3,10.393,10.393,0,0,0,.726,2.515,2.8,2.8,0,0,1-.17,2.519c-.166.223-.385.406-.535.641a2.588,2.588,0,0,0-.308,1.172l-.438,4.352c-1.124-.207-.625-2.154-1.622-2.7-.207-.114-.454-.142-.669-.247-.479-.239-.665-.787-.9-1.249s-.7-.937-1.217-.811-.7.722-1.079,1.075a2.175,2.175,0,0,1-1.971.264,7.939,7.939,0,0,0-2.028-.454c-1.622.028-2.665,1.622-3.407,3a2.2,2.2,0,0,1-.629.811,1.515,1.515,0,0,1-2.174-1.071c-.073-.519.085-1.1-.211-1.537s-.949-.535-1.456-.771a3.264,3.264,0,0,1-1.48-3.565,6.2,6.2,0,0,0,.227-2.916c-.109-.324-.3-.621-.406-.945a2.554,2.554,0,0,1,.909-2.563,7.426,7.426,0,0,1,2.628-1.318,30.042,30.042,0,0,1,7.512-1.756c1.123-.073,2.6-.426,3.492.276A11.628,11.628,0,0,0,453.2,171.287Z" transform="translate(92.752 246.204)" fill="#3f3d56"/>
    <circle id="Ellipse_33" data-name="Ellipse 33" cx="0.442" cy="0.442" r="0.442" transform="translate(543.407 442.273)" opacity="0.1"/>
    <circle id="Ellipse_34" data-name="Ellipse 34" cx="0.442" cy="0.442" r="0.442" transform="translate(543.407 442.098)" fill="#444053"/>
    <circle id="Ellipse_35" data-name="Ellipse 35" cx="0.442" cy="0.442" r="0.442" transform="translate(546.238 470.052)" opacity="0.1"/>
    <circle id="Ellipse_36" data-name="Ellipse 36" cx="0.442" cy="0.442" r="0.442" transform="translate(546.238 469.877)" fill="#444053"/>
    <circle id="Ellipse_37" data-name="Ellipse 37" cx="0.442" cy="0.442" r="0.442" transform="translate(544.733 477.397)" opacity="0.1"/>
    <circle id="Ellipse_38" data-name="Ellipse 38" cx="0.442" cy="0.442" r="0.442" transform="translate(544.733 477.218)" fill="#444053"/>
    <path id="Path_322" data-name="Path 322" d="M439.026,254.27s-.973,6.607,0,7.759S439.026,254.27,439.026,254.27Z" transform="translate(90.944 195.437)" opacity="0.1"/>
    <path id="Path_323" data-name="Path 323" d="M507.251,284.52a10,10,0,0,1,0,7.84c-1.858,3.837-3.009,5.4-2.389,7.848S507.251,284.52,507.251,284.52Z" transform="translate(51.653 177.456)" opacity="0.1"/>
    <path id="Path_324" data-name="Path 324" d="M293.013,458.045c2.742,1.858,6.9.973,6.9.973s6.279-3.009,8.136-3.009,6.38-1.845,6.38-1.845l-.154-1.253c-1.833.353-6,1.2-6.489,1.622-.621.531-8.229,3.1-8.229,3.1s-5.179-.649-6.623-2.778C291.983,455.81,291.578,457.071,293.013,458.045Z" transform="translate(178.036 77.364)" opacity="0.1"/>
    <g id="Group_16" data-name="Group 16" transform="translate(528.312 419.775)" opacity="0.1">
      <path id="Path_325" data-name="Path 325" d="M484.46,180.758v.045A.165.165,0,0,0,484.46,180.758Z" transform="translate(-464.632 -180.47)"/>
      <path id="Path_326" data-name="Path 326" d="M437.61,194.735c.507.231,1.148.316,1.456.767s.138,1.018.211,1.537a1.519,1.519,0,0,0,2.174,1.075,2.214,2.214,0,0,0,.629-.811c.742-1.379,1.781-2.969,3.407-3a8.546,8.546,0,0,1,2.028.45,2.157,2.157,0,0,0,1.971-.264c.381-.349.564-.949,1.079-1.075s.994.349,1.217.811a2.4,2.4,0,0,0,.9,1.245c.215.105.462.138.669.251.994.543.495,2.486,1.622,2.7l.438-4.356a2.6,2.6,0,0,1,.308-1.172c.15-.231.369-.406.535-.637a1.946,1.946,0,0,0,.361-.937,2.243,2.243,0,0,1-.361,1.643c-.166.223-.385.406-.535.641a2.588,2.588,0,0,0-.308,1.172l-.438,4.352c-1.123-.207-.625-2.154-1.622-2.7-.207-.114-.454-.142-.669-.247-.479-.239-.665-.787-.9-1.249s-.7-.937-1.217-.811-.7.722-1.079,1.075a2.175,2.175,0,0,1-1.971.264,7.939,7.939,0,0,0-2.028-.454c-1.622.028-2.665,1.622-3.407,3a2.2,2.2,0,0,1-.629.811,1.515,1.515,0,0,1-2.174-1.071c-.073-.519.085-1.1-.211-1.537s-.949-.535-1.456-.771a3.134,3.134,0,0,1-1.521-3.212A2.9,2.9,0,0,0,437.61,194.735Z" transform="translate(-435.871 -186.919)"/>
      <path id="Path_327" data-name="Path 327" d="M435.657,181.1c.1.324.292.621.406.945a2.839,2.839,0,0,1,.1,1.164,2.529,2.529,0,0,0-.1-.454c-.109-.324-.3-.621-.406-.945a1.987,1.987,0,0,1-.053-.925C435.62,180.963,435.636,181.032,435.657,181.1Z" transform="translate(-435.572 -180.72)"/>
    </g>
    <path id="Path_328" data-name="Path 328" d="M483.856,265.44c2.028-.446,6.81-1.858,6.81-1.858l.856-.17c0-2.969-.158-5.845-.215-6.822h0a33.9,33.9,0,0,0-5.042,2.028c-.986.7-3.983.531-3.983.531a13.63,13.63,0,0,0-8.582,4.6C469.806,268.084,481.82,265.886,483.856,265.44Z" transform="translate(70.535 194.058)" opacity="0.1"/>
    <path id="Path_329" data-name="Path 329" d="M503.71,255.335a1.18,1.18,0,0,1,.268,1.983,8.682,8.682,0,0,1-4.153,2.113c-2.507.251-8.517,1.46-9.138,1.582a.407.407,0,0,0-.093.024c-.5.146-4.867,1.42-6.765,1.837-2.028.446-14.07,2.661-10.176-1.675a13.753,13.753,0,0,1,8.517-4.6h.154c.454.024,3.026.109,3.914-.531a8.262,8.262,0,0,1,1.46-.73,28.2,28.2,0,0,1,5.982-1.724l4.161-.726a1.188,1.188,0,0,1,.7.089Z" transform="translate(70.562 196.266)" fill="#be6f72"/>
    <path id="Path_330" data-name="Path 330" d="M518.119,230.168l1.947-.178s2.121,1.594,3.715,1.594,2.567,2.028,2.567,2.028a28.184,28.184,0,0,0,3.537,1.416c.884.174,2.389,1.063,1.947,1.415s.089,1.152.884,1.772,2.028,3.8.973,4.247-3.983,1.322-4.762,1.772a2.194,2.194,0,0,1-1.768,0s-4.721-6.1-7.094-4.956a15.411,15.411,0,0,1-5.678,1.152l-2.567-5.4Z" transform="translate(47.417 209.869)" fill="#67647e"/>
    <path id="Path_331" data-name="Path 331" d="M664.034,514.094s-3.521-.811-5.824,1.562c0,0,1.484,1.338,4.964-.142Z" transform="translate(-39.599 41.075)" fill="#6c63ff"/>
    <path id="Path_332" data-name="Path 332" d="M672.064,514.22s2.081,2.949.762,5.978c0,0-1.8-.864-1.748-4.648Z" transform="translate(-47.247 40.921)" fill="#6c63ff"/>
    <path id="Path_333" data-name="Path 333" d="M668.773,501.691s-1.245-2.705-7.183.568a3.2,3.2,0,0,0,3.164,1.829A3.867,3.867,0,0,0,668.773,501.691Z" transform="translate(-41.608 48.992)" fill="#6c63ff"/>
    <path id="Path_334" data-name="Path 334" d="M678.876,502.83s2.973-.138,2.807,6.635A3.2,3.2,0,0,1,678.6,507.5,3.865,3.865,0,0,1,678.876,502.83Z" transform="translate(-51.329 47.691)" fill="#6c63ff"/>
    <path id="Path_335" data-name="Path 335" d="M674.243,485.765s-1.351-4.709-7.593-1.841c0,0,1.091,4.311,6.871,3.366Z" transform="translate(-44.615 59.48)" fill="#6c63ff"/>
    <path id="Path_336" data-name="Path 336" d="M678.379,469.563s-2.839-4.867-8.659-.913c0,0,1.655,4.494,8.075,2.543Z" transform="translate(-46.44 68.928)" fill="#6c63ff"/>
    <path id="Path_337" data-name="Path 337" d="M680.374,453.922s-3.366-4.514-9.154-.617c0,0,3.212,3.979,9.081,1.708Z" transform="translate(-47.332 78.071)" fill="#6c63ff"/>
    <path id="Path_338" data-name="Path 338" d="M683.131,438.106s-3.4-4.7-8.951-.84c0,0,3.91,4.218,8.878,1.882Z" transform="translate(-49.091 87.569)" fill="#6c63ff"/>
    <path id="Path_339" data-name="Path 339" d="M683.616,422.375s-3.5-6-8.7-2.434c0,0,3.841,5.212,8.623,3.533Z" transform="translate(-49.531 97.633)" fill="#6c63ff"/>
    <path id="Path_340" data-name="Path 340" d="M682.3,406.317s-3.744-5.97-8.826-1.927c0,0,4.551,5.273,8.757,2.969Z" transform="translate(-48.669 107.039)" fill="#6c63ff"/>
    <path id="Path_341" data-name="Path 341" d="M679.733,390.286s-4.522-5.678-8.923-3.829c0,0,4.709,6.023,9.049,5.273Z" transform="translate(-47.088 117.084)" fill="#6c63ff"/>
    <path id="Path_342" data-name="Path 342" d="M676.893,374.6s-5.2-6.923-8.623-4.964c0,0,3.813,5.354,8.947,6.226Z" transform="translate(-45.578 127.069)" fill="#6c63ff"/>
    <path id="Path_343" data-name="Path 343" d="M672.41,359.064s-4.575-5.678-8.27-4.6c0,0,3.849,5.832,8.818,6.307Z" transform="translate(-43.123 135.96)" fill="#6c63ff"/>
    <path id="Path_344" data-name="Path 344" d="M668.944,343.634s-5.11-5.488-7.544-4.745c0,0,3.557,5.954,7.706,5.9Z" transform="translate(-41.495 145.18)" fill="#6c63ff"/>
    <path id="Path_345" data-name="Path 345" d="M665.475,327.533s-4.287-6.433-6.9-6.128c0,0,2.478,5.646,6.834,6.745Z" transform="translate(-39.818 155.538)" fill="#6c63ff"/>
    <path id="Path_346" data-name="Path 346" d="M662.084,310.05s-3.837-4.968-6.084-5.11c0,0,2.839,6.489,6.149,6.652Z" transform="translate(-38.285 165.318)" fill="#6c63ff"/>
    <path id="Path_347" data-name="Path 347" d="M663.368,290.208l-3.35-10.038s-.811,8.818,3.74,11.884Z" transform="translate(-40.64 180.042)" fill="#6c63ff"/>
    <path id="Path_348" data-name="Path 348" d="M664.218,265.138s-.114-8.205.357-8.838c0,0-3.322,6.587-.572,12.444Z" transform="translate(-42.394 194.231)" fill="#6c63ff"/>
    <path id="Path_349" data-name="Path 349" d="M684.9,489s4.332-2.3,6.6,4.19c0,0-3.865,2.206-7.2-2.612Z" transform="translate(-55.107 56.145)" fill="#6c63ff"/>
    <path id="Path_350" data-name="Path 350" d="M690.614,472.151s5.273-1.983,7.3,4.762c0,0-4.121,2.434-7.864-3.131Z" transform="translate(-58.525 66.088)" fill="#6c63ff"/>
    <path id="Path_351" data-name="Path 351" d="M694.2,455.778s3.938-4.023,9.154.616c0,0-3.715,3.512-9.227.475Z" transform="translate(-60.95 76.621)" fill="#6c63ff"/>
    <path id="Path_352" data-name="Path 352" d="M696.449,439s4-4.21,8.98.365c0,0-4.437,3.65-9.049.677Z" transform="translate(-62.287 86.683)" fill="#6c63ff"/>
    <path id="Path_353" data-name="Path 353" d="M696.33,422.146s3.03-6.254,8.485-3.111c0,0-3.427,5.5-8.327,4.194Z" transform="translate(-62.257 98.024)" fill="#6c63ff"/>
    <path id="Path_354" data-name="Path 354" d="M694.43,405.262s3.018-6.364,8.542-2.949c0,0-3.906,5.759-8.351,3.979Z" transform="translate(-61.128 108.037)" fill="#6c63ff"/>
    <path id="Path_355" data-name="Path 355" d="M691.45,385.546s1.5-7.1,6.279-7.426c0,0-1.513,7.5-5.731,8.761Z" transform="translate(-59.357 121.82)" fill="#6c63ff"/>
    <path id="Path_356" data-name="Path 356" d="M689.23,369.721s.977-8.607,4.92-8.651c0,0-.576,6.55-4.559,9.9Z" transform="translate(-58.037 131.954)" fill="#6c63ff"/>
    <path id="Path_357" data-name="Path 357" d="M683.56,354s1.655-7.106,5.451-7.731c0,0-.929,6.923-5.2,9.515Z" transform="translate(-54.667 140.752)" fill="#6c63ff"/>
    <path id="Path_358" data-name="Path 358" d="M678.93,338.4s.539-7.479,2.9-8.428c0,0,.965,6.871-2.3,9.426Z" transform="translate(-51.915 150.44)" fill="#6c63ff"/>
    <path id="Path_359" data-name="Path 359" d="M675.16,323.681s.84-7.686,3.277-8.611c0,0,.406,6.153-2.957,9.138Z" transform="translate(-49.674 159.297)" fill="#6c63ff"/>
    <path id="Path_360" data-name="Path 360" d="M670.07,307.831s.434-6.262,2.223-7.621c0,0,1.217,6.976-1.424,8.923Z" transform="translate(-46.648 168.13)" fill="#6c63ff"/>
    <path id="Path_361" data-name="Path 361" d="M668.6,289.068l2.344-10.318s1.663,8.7-2.547,12.2Z" transform="translate(-45.656 180.886)" fill="#6c63ff"/>
    <path id="Path_362" data-name="Path 362" d="M667.143,267.536s4.693-6.725,4.656-7.536c0,0-.941,7.3-6.489,10.626Z" transform="translate(-43.819 192.031)" fill="#6c63ff"/>
    <path id="Path_363" data-name="Path 363" d="M668.513,258.179s4.652-9.694,6.489-10.379a12.662,12.662,0,0,0-6.822,10.071Z" transform="translate(-45.525 199.283)" fill="#6c63ff"/>
    <path id="Path_364" data-name="Path 364" d="M667.844,291.948l.276-.065c-2.624-11.19-2.993-18.252-1.038-19.874l-.183-.219C664.826,273.5,665.155,280.482,667.844,291.948Z" transform="translate(-43.964 185.023)" fill="#444053"/>
    <path id="Path_365" data-name="Path 365" d="M678.445,346.554l.406-.114c-.288-1.03-.6-2.073-.941-3.107-2.92-8.98-5.362-17.319-6.859-23.695l-.341-.2c1.5,6.388,3.865,15.031,6.794,24.027C677.84,344.493,678.157,345.532,678.445,346.554Z" transform="translate(-47.029 156.7)" fill="#444053"/>
    <path id="Path_366" data-name="Path 366" d="M658.287,444.707a55.562,55.562,0,0,0,10.42-16.045,61.936,61.936,0,0,0,4.96-18.856A72.13,72.13,0,0,0,671,383.99l-.345.349c5.333,19,1.651,34.727-2.458,44.067a55.354,55.354,0,0,1-10.306,15.9Z" transform="translate(-39.408 118.33)" fill="#444053"/>
    <path id="Path_367" data-name="Path 367" d="M959.031,647.008l-11.223-16.272s-.207-4.027-.941-4.968-.158-3.038-.158-3.038.787-1.148.105-1.253-.105-2.669-.105-2.669l-.053-4.08s.629-3.926.105-4.867a1.537,1.537,0,0,1,.053-1.675s.629-2.247,0-2.839-.475-4.08-.316-6.855-1.1-4.344-1.1-4.762-4.141-4.5-4.141-4.867-2.624-1.882-4.2-2.3-2.357-.734-2.3-.941-2.466-1.046-2.466-1.046-2.2-.158-3.042-1.257-3.407-1.416-3.48-1.428l-.049-.219a1.6,1.6,0,0,0-.045-.235c.195-.333.381-.673.548-1.026.049-.105.1-.211.142-.32a4.462,4.462,0,0,0,2.584-.811,3.525,3.525,0,0,0,1.257-2.511,5.488,5.488,0,0,0-.617-2.786c-.458-.941-1.136-1.918-.9-2.941.1-.442.365-.811.5-1.261a3.306,3.306,0,0,0-.373-2.478c-.406-.758-.953-1.428-1.4-2.162a8.606,8.606,0,0,1-1.107-3.062,4.665,4.665,0,0,0-.406-1.667,3.078,3.078,0,0,0-.917-.929,9.211,9.211,0,0,0-5.638-1.708,27.418,27.418,0,0,1-4.271.26,15.743,15.743,0,0,1-2.49-.653c-1.76-.519-3.788-.734-5.321.272s-2.142,2.989-3.18,4.539c-.917,1.367-2.259,2.515-2.961,3.967l.024-.085a4.8,4.8,0,0,0-.406,1.059,7.543,7.543,0,0,0,.231,3.472,2.422,2.422,0,0,0,.848,1.549,4.827,4.827,0,0,0,1.833.357c-.024.1-.049.2-.069.3a11.738,11.738,0,0,0-.264,2.49,11.989,11.989,0,0,0,8.578,11.482v.32a7.926,7.926,0,0,1-.057.9h0s-5.273-1.083-6.688-.349-4.2,1.306-4.616,1.724-1.468.105-2.413,2.563-1.05,4.973-2.255,6.124-1.837,1.935-1.89,2.77.158,1.046-.312,1.31-1.156,1.359-.945,1.776a1.488,1.488,0,0,1-.576,1.57,1.748,1.748,0,0,0-.734,1.57s-.316,1.152-1.05,1.416-1.217,1.987-1.217,1.987l-2.381,2.734-4.685-5.187a1.983,1.983,0,0,0-2.8-.146l-2.316,2.081a4.616,4.616,0,0,0-2.316,1.379,6.083,6.083,0,0,0-1.217,1.789l-1.27,1.14a3.216,3.216,0,0,0-.325,3.553l3.022,3.342v.028a5.33,5.33,0,0,0-2.92,1.188c-4.506,3.975-4.563,7.641-3.877,9.329s6.4,8.112,6.4,8.112a25.578,25.578,0,0,0,8.112,6.611h0l-.037.036q-.142.154-.28.328l-.077.1-.073.1-.085.126-.069.105c-.028.049-.061.1-.089.15l-.057.1-.109.2a.534.534,0,0,1-.032.069c-.045.093-.089.187-.13.284l-.045.109-.081.207a.576.576,0,0,1-.045.134c-.012.045-.049.134-.069.207s-.032.1-.045.146-.045.15-.065.231l-.037.142c-.028.122-.057.243-.081.373l-.024.15-.049.268-.024.191c0,.085-.024.17-.032.26a.91.91,0,0,1-.02.2l-.024.3v.69c-.105,6.12.251,7.013.251,7.013a3.4,3.4,0,0,0,2.782,2.089,3.654,3.654,0,0,0,.9-.049c2.726-.47,9.122-1.57,11.357-1.152a19.476,19.476,0,0,0,5.654-.458l.47-.089.329,1.038,1.038-.284c.333.195.633.369.88.507l.556.32c1.034,3.512,5.236,2.312,5.236,2.312l1,.576,10.14.264a20.664,20.664,0,0,0,3.581,1.72,3.161,3.161,0,0,0,.511.109,22.511,22.511,0,0,0,2.819.053c.775,0,1.375-.053,1.375-.053s-.1-2.746-.247-5.824a83.034,83.034,0,0,0,9.373-.767c5.4-.949,7.662-5.865,8.489-8.493a24.286,24.286,0,0,1,.531,3.245,23.967,23.967,0,0,0,.84,2.839,9.615,9.615,0,0,0,1.152,2.093c3.987-1.363,1.574-3.4.738-4.291s.576-1.622.576-1.622,1.1-.734.994-1.411-.154-1.416,3.411-1.363S959.031,647.008,959.031,647.008ZM903.656,613.6a24.244,24.244,0,0,0,.99,4.372,5.646,5.646,0,0,1,.118,1.72c-2.109-.166-4.311-.255-4.311-.255a.535.535,0,0,1,.114.268l-.333-.073-.483-.122,3.894-5.918Zm-7.706,12.269,3.65.58.308.049a11.641,11.641,0,0,0-.191,1.728c0,.053.081.122.2.195a4.732,4.732,0,0,0-.069.864c.057.292,1.768.917,3.727,1.436-.024.105-.053.207-.081.3h0c-1.732-.913-4.462-1.339-4.774-2.028s-9.6-3.918-9.6-3.918-.341-.183-.925-.462l2.434.462L891.3,625a36.464,36.464,0,0,0,4.64.864Z" transform="translate(-164.146 15.525)" fill="url(#linear-gradient-3)"/>
    <path id="Path_368" data-name="Path 368" d="M966.561,755.789s-1.456,8.785-8.834,10.083-32.021,1.03-32.021,1.03-14.086-2.028-19.176-13.928-8.371-16.629-4-16.84,27.913,7.95,29.263,8.055S967.863,726.108,966.561,755.789Z" transform="translate(-183.613 -90.985)" fill="#65617d"/>
    <path id="Path_369" data-name="Path 369" d="M966.561,755.789s-1.456,8.785-8.834,10.083-32.021,1.03-32.021,1.03-14.086-2.028-19.176-13.928-8.371-16.629-4-16.84,27.913,7.95,29.263,8.055S967.863,726.108,966.561,755.789Z" transform="translate(-183.613 -90.985)" opacity="0.05"/>
    <path id="Path_370" data-name="Path 370" d="M900.108,789.17a3.367,3.367,0,0,0,2.758,2.077,3.557,3.557,0,0,0,.888-.049c2.7-.466,9.045-1.562,11.279-1.144a19.116,19.116,0,0,0,5.6-.454c1.176-.223,2.028-.43,2.028-.43s-2.081-6.9-2.34-7.122-9.357-5.678-9.357-5.678l-7.2-.519h0a3.793,3.793,0,0,0-2.434,1.432,7.683,7.683,0,0,0-1.456,4.908C899.751,788.285,900.108,789.17,900.108,789.17Z" transform="translate(-183.23 -114.595)" fill="#3f3d56"/>
    <path id="Path_371" data-name="Path 371" d="M900.138,789.217a3.367,3.367,0,0,0,2.758,2.077,30.409,30.409,0,0,1-1.959-2.839l.041-5.042a8.878,8.878,0,0,1,2.839-7.483h0s-3.792.256-3.9,6.339S900.138,789.217,900.138,789.217Z" transform="translate(-183.26 -114.642)" opacity="0.05"/>
    <path id="Path_372" data-name="Path 372" d="M971.366,758.4l6.7-5.248,10.545-10.4s-1.14-.057-2.859-.13c-.43.272-1.622,1.132-1.671,2.174-.053,1.27-2.839.085-4.307.811s-8.574,9.84-9.823,9.779-2.235-.633-2.754.251l-.041.057Z" transform="translate(-223.241 -94.849)" opacity="0.1"/>
    <path id="Path_373" data-name="Path 373" d="M903.46,777.3c.239.118.479.227.726.333,5.094,2.182,11.385,6.757,11.851,7.589.284.507,3.93,2.722,6.745,4.38,1.176-.223,2.028-.43,2.028-.43s-2.081-6.9-2.34-7.122-9.357-5.678-9.357-5.678l-7.2-.519h0a3.792,3.792,0,0,0-2.45,1.448Z" transform="translate(-185.377 -114.595)" opacity="0.1"/>
    <path id="Path_374" data-name="Path 374" d="M868.137,727.295c.677,1.663,6.339,8.059,6.339,8.059a24.883,24.883,0,0,0,8.684,6.859c5.094,2.182,11.381,6.757,11.847,7.589.3.535,4.36,2.981,7.224,4.66l.641.373c.56.328,1.046.612,1.42.811l.75.434s1.74-1.4,3.472-2.8,3.415-2.786,3.439-2.863c.053-.154.73-1.922.572-2.028-.081-.053-.438-.771-1.1-1.622a7.326,7.326,0,0,0-2.649-2.186A7.536,7.536,0,0,1,905.354,741s-.231-.166-.572-.385a6.93,6.93,0,0,0-2.34-1.042c-1.144-.142-3.273-2.482-3.273-2.482a6.382,6.382,0,0,1-2.028-2.129c-.572-1.2-8.607-6.676-9.353-7.187l19.541,12.549,4.677,3.005,6.7-5.248,10.545-10.4s-1.42-.069-3.484-.158c-5.127-.223-14.236-.568-15.384-.312a8.78,8.78,0,0,1-2.839.191,10.066,10.066,0,0,1-4.311-.791c-1.716-.9-4.421-1.33-4.733-2s-9.519-3.869-9.519-3.869-12.529-6.652-17-2.7S867.46,725.632,868.137,727.295Z" transform="translate(-164.193 -79.489)" fill="#65617d"/>
    <path id="Path_375" data-name="Path 375" d="M968.18,626.07l1.622,5.354,2.077,12.058,7.641.519,2.215-3.65,2.206-3.65s1.375-4.867,2.361-9.584c.876-4.173,1.448-8.221.495-8.659-.844-.406-1.4-1.793-1.756-3.306-.045-.187-.089-.377-.126-.564a29.139,29.139,0,0,1-.507-3.877s-16.009-.831-13.79,5.772a10.455,10.455,0,0,1,.6,3.508,7.926,7.926,0,0,1-.053.9A7.5,7.5,0,0,1,968.18,626.07Z" transform="translate(-223.847 -16.414)" fill="#ee8e9e"/>
    <path id="Path_376" data-name="Path 376" d="M960,640.12l.572,9.093,1.3,7.747,1.456,3.585,1.3,19.622s12.533,1.452,15.579-.024a1.322,1.322,0,0,0,.552-.43c3.683-5.561,2.478-21.663,2.478-21.663l1.4-10.4-.937-5.394-2.263-.239-1.74-.187s-.406.483-.957,1.217c-1.541,2.028-4.376,6.035-4.186,7.706.26,2.288-.312,4.628-1.217,4.989s-1.622.99-1.768.365a2.877,2.877,0,0,1-.154-1.663,13.377,13.377,0,0,0-.669-3.561s-1.4-3.172-1.3-4.522-.158-2.912-.572-3.277-.99-.726-.519-2.389-2.052-4.9-2.052-4.9Z" transform="translate(-218.985 -31.348)" fill="#e3e8f4"/>
    <path id="Path_377" data-name="Path 377" d="M1000.759,654.277l.519,15.542,3,1.663a1.291,1.291,0,0,0,.552-.43c3.683-5.561,2.478-21.663,2.478-21.663l1.4-10.4-.937-5.394-2.263-.239c.876-4.174,1.448-8.217.495-8.659-.844-.406-1.4-1.793-1.756-3.3h0l-1.622,11s.138.99.187,2.028a5.8,5.8,0,0,1-.134,1.939,6.41,6.41,0,0,0-.1,2.6c-.941,1.655-1.407,4.713-1.622,7.666C1000.641,650.534,1000.759,654.277,1000.759,654.277Z" transform="translate(-243.2 -22.788)" opacity="0.1"/>
    <path id="Path_378" data-name="Path 378" d="M1004.75,620.78s2.62.329,3.452,1.42,3.014,1.245,3.014,1.245,2.494.811,2.434,1.042.73.519,2.288.933,4.157,1.927,4.157,2.288,4.109,4.421,4.109,4.835a10.373,10.373,0,0,1,1.091,4.729c-.154,2.754-.312,6.238.312,6.81s0,2.807,0,2.807a1.537,1.537,0,0,0-.053,1.663c.519.937-.105,4.835-.105,4.835l.053,4.056s-.572,2.547.105,2.648-.105,1.249-.105,1.249-.572,2.077.158,3.014.933,4.94.933,4.94l11.125,16.163s.154,2.965-3.379,2.912-3.484.673-3.379,1.351-.99,1.4-.99,1.4-1.4.726-.572,1.622,3.245,2.912-.726,4.263a9.469,9.469,0,0,1-1.144-2.077,23.755,23.755,0,0,1-.811-2.811s-.365-3.946-1.091-4.461-.625-3.014-.625-3.014,1.038-2.028-.406-2.859-22.555-12.525-22.555-12.525l-.523-15.542s-.361-11.486,1.821-15.335a6.441,6.441,0,0,1,.105-2.6c.365-.933-.053-3.95-.053-3.95Z" transform="translate(-243.651 -22.42)" fill="#3f3d56"/>
    <path id="Path_379" data-name="Path 379" d="M948.107,635.28s-5.224-1.075-6.627-.349-4.157,1.3-4.575,1.716-1.456.1-2.389,2.547-1.042,4.936-2.235,6.084-1.821,1.922-1.874,2.754.158,1.042-.312,1.3-1.144,1.351-.933,1.768,10.809,9.564,10.809,9.564a24.742,24.742,0,0,0,.99,4.364c.47.884-.519,13.048-1.562,13.879s7.017.754,7.017.754.365-7.982.677-8.4-.207-8.923-.207-8.923-.053-7.276.621-9.2.6-8.315.6-8.315.6-3.837,1.326-4.729S948.107,635.28,948.107,635.28Z" transform="translate(-200.631 -30.682)" opacity="0.1"/>
    <path id="Path_380" data-name="Path 380" d="M947.723,634.9s-5.228-1.079-6.631-.349-4.157,1.3-4.571,1.712-1.456.105-2.393,2.547-1.038,4.94-2.235,6.084-1.817,1.922-1.87,2.754.154,1.038-.312,1.3-1.144,1.355-.937,1.768,10.813,9.564,10.813,9.564a25.05,25.05,0,0,0,.986,4.368c.466.884-.519,13.044-1.557,13.875s7.017.754,7.017.754.365-7.978.673-8.4-.207-8.923-.207-8.923-.053-7.276.625-9.2.6-8.319.6-8.319.6-3.837,1.322-4.729S947.723,634.9,947.723,634.9Z" transform="translate(-200.401 -30.453)" fill="#3f3d56"/>
    <path id="Path_381" data-name="Path 381" d="M973.886,616.412a10.457,10.457,0,0,1,.6,3.508,11.782,11.782,0,0,0,3.4.495,11.9,11.9,0,0,0,10.278-5.9,29.146,29.146,0,0,1-.507-3.877S971.651,609.809,973.886,616.412Z" transform="translate(-227.112 -16.373)" opacity="0.1"/>
    <path id="Path_382" data-name="Path 382" d="M954.72,587.219a11.9,11.9,0,1,0,.26-2.474A11.9,11.9,0,0,0,954.72,587.219Z" transform="translate(-215.847 4.607)" fill="#ee8e9e"/>
    <path id="Path_383" data-name="Path 383" d="M920.6,672.59l-2.839.884a1.488,1.488,0,0,1-.572,1.561,1.732,1.732,0,0,0-.726,1.557s-.312,1.144-1.042,1.4-1.192,1.975-1.192,1.975l-2.393,2.754s-.884.73-.726,1.091-.937.47-.937.47l.572,9.252,4.94.933,3.066-.308,2.494-.937,2.182-1.3.99-2.547,4.344-6.656Z" transform="translate(-189.366 -53.216)" fill="#3f3d56"/>
    <path id="Path_384" data-name="Path 384" d="M893.244,694.907s-6.343-9.146-11.073-4.21,1.922,12.942,3.48,12.683,9-.677,9-.677Z" transform="translate(-171.73 -63.11)" fill="#ee8e9e"/>
    <rect id="Rectangle_55" data-name="Rectangle 55" width="33.189" height="25.771" rx="1.54" transform="translate(707.655 613.158) rotate(27.04)" fill="#3f3d56"/>
    <rect id="Rectangle_56" data-name="Rectangle 56" width="27.897" height="21.022" transform="translate(708.977 616.444) rotate(27.04)" fill="#6c63ff"/>
    <circle id="Ellipse_39" data-name="Ellipse 39" cx="0.458" cy="0.458" r="0.458" transform="translate(702.8 624.841)" fill="#e6e8ec"/>
    <circle id="Ellipse_40" data-name="Ellipse 40" cx="0.754" cy="0.754" r="0.754" transform="translate(729.399 638.327)" fill="#e6e8ec"/>
    <path id="Path_385" data-name="Path 385" d="M901.79,703.262c-.053,6.863,14.139,8.319,14.139,8.319l3.626.572,1.622.26.677-6.717s-.742-.114-1.675-.328c-1.371-.32-3.151-.872-3.525-1.647C916.03,702.415,901.842,696.388,901.79,703.262Z" transform="translate(-184.384 -69.526)" fill="#ee8e9e"/>
    <path id="Path_386" data-name="Path 386" d="M955.36,584.8a1.42,1.42,0,0,1,.868.406c.406.426.406,1.18.949,1.444a1.042,1.042,0,0,0,.621.069c1.379-.195,2.182-1.756,3.508-2.182a3.492,3.492,0,0,1,2.324.2,1.756,1.756,0,0,1,.771.495c.442.576.134,1.42.337,2.113.288.965,1.44,1.351,2.434,1.476a4.271,4.271,0,0,1,2.786.949,2.531,2.531,0,0,1,.5,2.028,1.55,1.55,0,0,0,0,.746c.276.779,1.622.661,1.975.049.26-.45.178-.811.787-.945a2.563,2.563,0,0,1,1.274.219,9.348,9.348,0,0,0,3.289.507,11.9,11.9,0,1,0-22.417-7.54Z" transform="translate(-216.227 4.552)" opacity="0.1"/>
    <path id="Path_387" data-name="Path 387" d="M966.171,582.824a1.623,1.623,0,0,1,0-.746,2.511,2.511,0,0,0-.495-2.028,4.33,4.33,0,0,0-2.786-.949c-1-.138-2.15-.507-2.434-1.472-.2-.7.105-1.545-.337-2.117a1.756,1.756,0,0,0-.771-.495,3.516,3.516,0,0,0-2.324-.2c-1.326.406-2.129,1.987-3.508,2.182a1.043,1.043,0,0,1-.621-.069c-.523-.264-.547-1.018-.949-1.444-.629-.669-1.825-.235-2.6-.734a2.389,2.389,0,0,1-.84-1.537,7.494,7.494,0,0,1-.231-3.448c.454-1.935,2.182-3.245,3.285-4.912,1.026-1.537,1.622-3.484,3.151-4.5s3.529-.811,5.273-.272a15.6,15.6,0,0,0,2.47.649,27.311,27.311,0,0,0,4.23-.26,9.089,9.089,0,0,1,5.589,1.7,3.086,3.086,0,0,1,.913.921,4.866,4.866,0,0,1,.406,1.655,8.485,8.485,0,0,0,1.1,3.042c.438.73.986,1.4,1.379,2.15a3.277,3.277,0,0,1,.373,2.462,13.192,13.192,0,0,0-.495,1.253c-.231,1.014.438,1.983.892,2.92a5.464,5.464,0,0,1,.608,2.77,3.476,3.476,0,0,1-1.245,2.49,4.461,4.461,0,0,1-2.636.811,9.248,9.248,0,0,1-3.354-.5,2.608,2.608,0,0,0-1.273-.219c-.608.126-.527.495-.787.945C967.793,583.485,966.446,583.6,966.171,582.824Z" transform="translate(-211.946 13.926)" fill="#3f3d56"/>
    <path id="Path_388" data-name="Path 388" d="M969.907,759.132l6.7-5.248,10.545-10.4s-1.42-.069-3.484-.158a2.275,2.275,0,0,0-.734,1.42c-.053,1.274-2.839.089-4.307.811s-8.566,9.848-9.815,9.8-2.235-.633-2.754.251l-.041.057a1.481,1.481,0,0,1-.791.47Z" transform="translate(-222.094 -95.265)" opacity="0.1"/>
    <path id="Path_389" data-name="Path 389" d="M943.44,753.509l3.37,10.756.527,1.687,1.622-.438,3.541-.969,15.753-4.328a13.709,13.709,0,0,0,5.678-1.513,17.18,17.18,0,0,1,9.791-2.137c2.081.2,4.4-.7,6.319-4.251,0,0,4.364-12.89-6.656-16.581s-11.543,1.959-11.543,1.959l-.15.093c-.43.272-1.622,1.132-1.671,2.174-.053,1.269-2.839.085-4.307.811s-8.574,9.84-9.823,9.779-2.235-.633-2.754.251l-.041.057c-.385.531-1.541.657-2.308.677h-.718l-.1.032-.811.235Z" transform="translate(-209.142 -90.007)" fill="#65617d"/>
    <path id="Path_390" data-name="Path 390" d="M945.59,719.959l1.622.26.677-6.7s-.742-.114-1.675-.329C946.462,714.123,945.906,717.737,945.59,719.959Z" transform="translate(-210.42 -77.349)" opacity="0.1"/>
    <path id="Path_391" data-name="Path 391" d="M988.452,652.406s4.835-1.4,3.65,12.318a38.273,38.273,0,0,1-10.14,22.4s-10.29,4.522-14.918,3.8-8.006-.884-8.006-.884a11.763,11.763,0,0,0-4.676-1.249c-2.6-.1-8.055-1.716-8.16-2.235s1.351-8.161.73-8.732c0,0,7.276.3,8,.811s1.768.146,2.547,0,3.172-2.231,7.9-.406a4.791,4.791,0,0,0,2.235-.26,2.239,2.239,0,0,1,1.622-.105,4.58,4.58,0,0,0,1.128-.572c.158-.207,1.4,0,1.4,0a.552.552,0,0,0,.779-.361,3.432,3.432,0,0,1,.73-1.144s1.4-7.9,4.056-10.866a1.68,1.68,0,0,0,.568-1.5C977.692,662.582,982.214,650.743,988.452,652.406Z" transform="translate(-210.78 -41.123)" opacity="0.1"/>
    <path id="Path_392" data-name="Path 392" d="M988.127,649.77s4.835-1.4,3.65,12.318a38.273,38.273,0,0,1-10.14,22.4s-10.294,4.522-14.918,3.8-8.006-.884-8.006-.884a11.762,11.762,0,0,0-4.681-1.233c-2.6-.1-8.059-1.712-8.16-2.235s1.351-8.161.726-8.732c0,0,7.276.3,8.006.811s1.764.15,2.547,0,3.168-2.231,7.9-.406a4.811,4.811,0,0,0,2.239-.26,2.239,2.239,0,0,1,1.622-.105,4.516,4.516,0,0,0,1.132-.572c.154-.207,1.4,0,1.4,0a.552.552,0,0,0,.779-.361,3.382,3.382,0,0,1,.726-1.144s1.4-7.9,4.056-10.866a1.69,1.69,0,0,0,.572-1.5C977.371,659.963,981.893,648.123,988.127,649.77Z" transform="translate(-210.585 -39.558)" fill="#3f3d56"/>
    <path id="Path_393" data-name="Path 393" d="M957.5,776.835l6.867,8.311.045-.049c.053-.158.726-1.927.572-2.028s-1.351-2.705-3.744-3.8A7.09,7.09,0,0,1,958.3,776.6Z" transform="translate(-217.499 -115.041)" opacity="0.1"/>
    <path id="Path_394" data-name="Path 394" d="M957.521,799.15l.75.434s1.74-1.4,3.472-2.8,3.415-2.786,3.439-2.864c.053-.154.73-1.922.572-2.028-.081-.053-.438-.771-1.1-1.622-4.652-1.3-1.691,1.927-1.294,2.077,0,0-5.678-1.3-5.978,4.867a7.3,7.3,0,0,0,.134,1.939Z" transform="translate(-217.423 -122.981)" opacity="0.1"/>
    <path id="Path_395" data-name="Path 395" d="M963.979,801.788l.99.572,10.03.26a20.035,20.035,0,0,0,3.549,1.708,3.147,3.147,0,0,0,.507.114,22.882,22.882,0,0,0,2.795.053c.767,0,1.363-.053,1.363-.053s-.475-12.65-.811-13.985c-.174-.637-1.014-.495-1.841-.178a12.434,12.434,0,0,0-1.8.913,31.362,31.362,0,0,0-4.94.779c-.677.373-2.6-.211-3.792,0s-3.326-1.407-3.326-1.407c-5.824-1.922-2.551,1.663-2.133,1.821,0,0-5.678-1.3-5.978,4.867S963.979,801.788,963.979,801.788Z" transform="translate(-218.142 -123.003)" fill="#3f3d56"/>
    <path id="Path_396" data-name="Path 396" d="M1007.633,796.894c.109,2.616,2.154,5.869,3.37,7.589.767,0,1.363-.053,1.363-.053s-.475-12.65-.811-13.985c-.174-.637-1.014-.495-1.841-.178C1008.684,792.169,1007.548,794.793,1007.633,796.894Z" transform="translate(-247.296 -123.005)" fill="#565387"/>
    <path id="Path_397" data-name="Path 397" d="M1007.633,796.894c.109,2.616,2.154,5.869,3.37,7.589.767,0,1.363-.053,1.363-.053s-.475-12.65-.811-13.985c-.174-.637-1.014-.495-1.841-.178C1008.684,792.169,1007.548,794.793,1007.633,796.894Z" transform="translate(-247.296 -123.005)" opacity="0.1"/>
    <path id="Path_398" data-name="Path 398" d="M1003.173,797.269c.69,2.531.681,5.366,1.781,7.078a3.14,3.14,0,0,0,.507.114,22.905,22.905,0,0,0,2.794.053c.767,0,1.363-.053,1.363-.053s-.475-12.65-.811-13.985c-.174-.637-1.014-.495-1.841-.178a12.421,12.421,0,0,0-1.8.912S1002.289,794.032,1003.173,797.269Z" transform="translate(-244.547 -123.023)" opacity="0.05"/>
    <path id="Path_399" data-name="Path 399" d="M918.09,744.65a20.786,20.786,0,0,1,9.2,7.365Z" transform="translate(-194.074 -96.049)" opacity="0.1"/>
    <g id="Group_17" data-name="Group 17" transform="translate(736.196 582.66)" opacity="0.1">
      <path id="Path_400" data-name="Path 400" d="M1017.623,590.88a.145.145,0,0,1-.032.109,3.562,3.562,0,0,1-.17.434,2.844,2.844,0,0,1,.2-.544Z" transform="translate(-989.312 -587.307)"/>
      <path id="Path_401" data-name="Path 401" d="M948.237,583.12a4.94,4.94,0,0,1,.406-1.05c-.028.089-.057.178-.077.272a7.5,7.5,0,0,0,.231,3.448,2.382,2.382,0,0,0,.84,1.537c.771.5,1.971.065,2.6.734.406.406.406,1.18.949,1.44a1.042,1.042,0,0,0,.621.073c1.379-.195,2.178-1.756,3.508-2.186a3.52,3.52,0,0,1,2.324.2,1.724,1.724,0,0,1,.771.495c.442.572.13,1.42.337,2.113.288.965,1.436,1.351,2.434,1.476a4.241,4.241,0,0,1,2.786.949,2.51,2.51,0,0,1,.495,2.028,1.623,1.623,0,0,0,0,.746c.276.779,1.622.661,1.975.045.255-.446.178-.811.787-.941a2.563,2.563,0,0,1,1.274.219,9.329,9.329,0,0,0,3.354.5,4.486,4.486,0,0,0,2.636-.811,3.1,3.1,0,0,0,.811-.982,3.285,3.285,0,0,1-1.12,1.76,4.461,4.461,0,0,1-2.636.811,9.248,9.248,0,0,1-3.354-.5,2.608,2.608,0,0,0-1.273-.219c-.608.126-.531.495-.787.945-.353.612-1.7.73-1.975-.049a1.621,1.621,0,0,1,0-.746,2.511,2.511,0,0,0-.495-2.028,4.33,4.33,0,0,0-2.786-.949c-1-.138-2.15-.507-2.434-1.472-.207-.7.105-1.545-.337-2.117a1.756,1.756,0,0,0-.771-.495,3.516,3.516,0,0,0-2.324-.2c-1.326.406-2.129,1.987-3.508,2.182a1.043,1.043,0,0,1-.62-.069c-.523-.264-.548-1.018-.949-1.444-.629-.669-1.825-.235-2.6-.734a2.389,2.389,0,0,1-.84-1.537A7.24,7.24,0,0,1,948.237,583.12Z" transform="translate(-948.119 -582.07)"/>
    </g>
    <path id="Path_402" data-name="Path 402" d="M1013.78,683.566c-.949,1.286-2.028,2.474-2.88,3.837a7.236,7.236,0,0,0-1.265,4.534,11.841,11.841,0,0,0,1.821-3.245,47.521,47.521,0,0,1,3.5-5.273c.223-.333,1.659-2.259.933-2.352C1015.289,681,1014.1,683.128,1013.78,683.566Z" transform="translate(-248.471 -58.254)" opacity="0.1"/>
  </g>
</svg>
