<svg xmlns="http://www.w3.org/2000/svg" width="43.86" height="43.86" viewBox="0 0 43.86 43.86"><g transform="translate(-0.003)"><path d="M37.435,6.426A21.929,21.929,0,0,0,5.5,36.461l.228.182a10.448,10.448,0,0,1-4.512,5.1.851.851,0,0,0,.246,1.6,12.486,12.486,0,0,0,9.325-2.543l.046.036a21.926,21.926,0,0,0,26.6-34.419ZM29.158,31.311c-.483.492-.994.948-1.449,1.458a2.856,2.856,0,0,1-2.452.93,10.1,10.1,0,0,1-3.9-1.139,21.207,21.207,0,0,1-7.046-5.515,19.464,19.464,0,0,1-3.437-5.724,7.509,7.509,0,0,1-.574-3.19,2.625,2.625,0,0,1,.811-1.75c.547-.52,1.057-1.057,1.6-1.586a1.516,1.516,0,0,1,2.279,0c.438.428.857.857,1.285,1.285s.839.829,1.249,1.249a1.518,1.518,0,0,1,0,2.334c-.52.529-1.039,1.057-1.577,1.568a.326.326,0,0,0-.082.419,9.2,9.2,0,0,0,1.422,2.279,16.212,16.212,0,0,0,3.983,3.619c.328.21.693.355,1.039.547a.312.312,0,0,0,.438-.082c.52-.538,1.057-1.066,1.586-1.6a1.5,1.5,0,0,1,2.27,0c.857.848,1.7,1.7,2.552,2.552A1.534,1.534,0,0,1,29.158,31.311ZM21.072,17.146l.273-1.951a8.721,8.721,0,0,1,7.374,7.146l-1.942.337a6.76,6.76,0,0,0-5.706-5.533Zm10.82,5.2A12.482,12.482,0,0,0,21.328,12.1l.273-1.951A14.47,14.47,0,0,1,33.834,22Z" transform="translate(0)" fill="rgba(68,129,220,0.7)"/></g></svg>