<svg xmlns="http://www.w3.org/2000/svg" width="33.989" height="29" viewBox="0 0 33.989 29"><g transform="translate(0 -2.272)"><path d="M33.817,12.753a3.242,3.242,0,0,1-.127.624,23.636,23.636,0,0,1-2.082,3.195c-.871,1.367-8.269-1.579-7.315-3.4.359-.675,1.759-2.538,1.865-3.288.1-.668-.8-1.192-1.637-1.26-2.2-.174-5-.016-7.333,0v0H16.8v0c-2.332-.014-5.137-.172-7.333,0-.832.068-1.734.592-1.637,1.261.105.749,1.506,2.613,1.865,3.288.955,1.825-6.445,4.77-7.316,3.4A23.474,23.474,0,0,1,.3,13.378a3.259,3.259,0,0,1-.128-.624c-1.085-4.766,3.1-9.628,9.4-10.126,2.407-.192,4.818-.3,7.233-.342V2.272c.065,0,.129.006.194.007s.129,0,.194-.007v.013c2.413.043,4.825.15,7.232.342C30.72,3.125,34.9,7.989,33.817,12.753ZM29.492,29.2a1.83,1.83,0,0,1-1.7,2.076H6.192A1.831,1.831,0,0,1,4.5,29.2l.631-10.424c2.29-.527,5.216-1.9,6.277-3.612a2.915,2.915,0,0,0,.168-2.953c-.123-.232-.353-.595-.618-1v0l-.014-.031H22.7c-.006.016-.008.019-.018.043a1.632,1.632,0,0,0-.17.819c-.033.059-.081.133-.106.182a2.908,2.908,0,0,0,.174,2.941c1.062,1.711,3.986,3.085,6.275,3.611ZM21.127,18.377a5.887,5.887,0,0,0-8.212,0,5.64,5.64,0,0,0,0,8.067,5.888,5.888,0,0,0,7.528.566l-1.42-1.393a3.887,3.887,0,0,1-4.717-.54,3.728,3.728,0,0,1,0-5.333,3.891,3.891,0,0,1,5.428,0,3.716,3.716,0,0,1,.559,4.613l1.422,1.4A5.632,5.632,0,0,0,21.127,18.377Z" transform="translate(0 0)" fill="rgba(68,129,220,0.7)"/></g></svg>